<?xml version="1.0" encoding="UTF-8"?>
<?xml-stylesheet href="https://cdnjs.cloudflare.com/ajax/libs/font-awesome/6.6.0/css/all.min.css" type="text/css"?>
<svg aria-roledescription="er" role="graphics-document document" style="overflow: hidden; max-width: 100%;" xmlns="http://www.w3.org/2000/svg" width="100%" id="graph-div" height="100%" xmlns:xlink="http://www.w3.org/1999/xlink" xmlns:ev="http://www.w3.org/2001/xml-events"><defs><marker orient="auto" markerHeight="240" markerWidth="190" refY="7" refX="0" id="MD_PARENT_START"><path d="M 18,7 L9,13 L1,7 L9,1 Z"></path></marker><style id="svg-pan-zoom-controls-styles" type="text/css">.svg-pan-zoom-control { cursor: pointer; fill: black; fill-opacity: 0.333; } .svg-pan-zoom-control:hover { fill-opacity: 0.8; } .svg-pan-zoom-control-background { fill: white; fill-opacity: 0.5; } .svg-pan-zoom-control-background { fill-opacity: 0.8; }</style></defs><defs><marker orient="auto" markerHeight="28" markerWidth="20" refY="7" refX="19" id="MD_PARENT_END"><path d="M 18,7 L9,13 L1,7 L9,1 Z"></path></marker></defs><defs><marker orient="auto" markerHeight="18" markerWidth="18" refY="9" refX="0" id="ONLY_ONE_START"><path d="M9,0 L9,18 M15,0 L15,18" fill="none" stroke="gray"></path></marker></defs><defs><marker orient="auto" markerHeight="18" markerWidth="18" refY="9" refX="18" id="ONLY_ONE_END"><path d="M3,0 L3,18 M9,0 L9,18" fill="none" stroke="gray"></path></marker></defs><defs><marker orient="auto" markerHeight="18" markerWidth="30" refY="9" refX="0" id="ZERO_OR_ONE_START"><circle r="6" cy="9" cx="21" fill="white" stroke="gray"></circle><path d="M9,0 L9,18" fill="none" stroke="gray"></path></marker></defs><defs><marker orient="auto" markerHeight="18" markerWidth="30" refY="9" refX="30" id="ZERO_OR_ONE_END"><circle r="6" cy="9" cx="9" fill="white" stroke="gray"></circle><path d="M21,0 L21,18" fill="none" stroke="gray"></path></marker></defs><defs><marker orient="auto" markerHeight="36" markerWidth="45" refY="18" refX="18" id="ONE_OR_MORE_START"><path d="M0,18 Q 18,0 36,18 Q 18,36 0,18 M42,9 L42,27" fill="none" stroke="gray"></path></marker></defs><defs><marker orient="auto" markerHeight="36" markerWidth="45" refY="18" refX="27" id="ONE_OR_MORE_END"><path d="M3,9 L3,27 M9,18 Q27,0 45,18 Q27,36 9,18" fill="none" stroke="gray"></path></marker></defs><defs><marker orient="auto" markerHeight="36" markerWidth="57" refY="18" refX="18" id="ZERO_OR_MORE_START"><circle r="6" cy="18" cx="48" fill="white" stroke="gray"></circle><path d="M0,18 Q18,0 36,18 Q18,36 0,18" fill="none" stroke="gray"></path></marker></defs><defs><marker orient="auto" markerHeight="36" markerWidth="57" refY="18" refX="39" id="ZERO_OR_MORE_END"><circle r="6" cy="18" cx="9" fill="white" stroke="gray"></circle><path d="M21,18 Q39,0 57,18 Q39,36 21,18" fill="none" stroke="gray"></path></marker></defs><g id="viewport-20250127124549180" class="svg-pan-zoom_viewport" transform="matrix(0.5275533199310303,0,0,0.5275533199310303,193.82786560058594,109.21400451660156)" style="transform: matrix(0.527553, 0, 0, 0.527553, 193.828, 109.214);"><style>#graph-div{font-family:"trebuchet ms",verdana,arial,sans-serif;font-size:16px;fill:#333;}#graph-div .error-icon{fill:#552222;}#graph-div .error-text{fill:#552222;stroke:#552222;}#graph-div .edge-thickness-normal{stroke-width:1px;}#graph-div .edge-thickness-thick{stroke-width:3.5px;}#graph-div .edge-pattern-solid{stroke-dasharray:0;}#graph-div .edge-thickness-invisible{stroke-width:0;fill:none;}#graph-div .edge-pattern-dashed{stroke-dasharray:3;}#graph-div .edge-pattern-dotted{stroke-dasharray:2;}#graph-div .marker{fill:#333333;stroke:#333333;}#graph-div .marker.cross{stroke:#333333;}#graph-div svg{font-family:"trebuchet ms",verdana,arial,sans-serif;font-size:16px;}#graph-div p{margin:0;}#graph-div .entityBox{fill:#ECECFF;stroke:#9370DB;}#graph-div .attributeBoxOdd{fill:#ffffff;stroke:#9370DB;}#graph-div .attributeBoxEven{fill:#f2f2f2;stroke:#9370DB;}#graph-div .relationshipLabelBox{fill:hsl(80, 100%, 96.2745098039%);opacity:0.7;background-color:hsl(80, 100%, 96.2745098039%);}#graph-div .relationshipLabelBox rect{opacity:0.5;}#graph-div .relationshipLine{stroke:#333333;}#graph-div .entityTitleText{text-anchor:middle;font-size:18px;fill:#333;}#graph-div #MD_PARENT_START{fill:#f5f5f5!important;stroke:#333333!important;stroke-width:1;}#graph-div #MD_PARENT_END{fill:#f5f5f5!important;stroke:#333333!important;stroke-width:1;}#graph-div :root{--mermaid-font-family:"trebuchet ms",verdana,arial,sans-serif;}</style><g></g><path marker-start="url(#ZERO_OR_MORE_START)" marker-end="url(#ZERO_OR_ONE_END)" style="stroke: gray; fill: none;" d="M189.267,113.846L151.258,129.705C113.25,145.564,37.233,177.282,-0.775,216.891C-38.783,256.5,-38.783,304,-38.783,351.5C-38.783,399,-38.783,446.5,-38.783,492.083C-38.783,537.667,-38.783,581.333,-38.783,625C-38.783,668.667,-38.783,712.333,-28.986,746.489C-19.189,780.645,0.406,805.29,10.203,817.613L20,829.935" class="er relationshipLine"></path><path marker-start="url(#ONLY_ONE_START)" marker-end="url(#ZERO_OR_ONE_END)" style="stroke: gray; fill: none;" d="M305.967,135.985L321.242,148.155C336.517,160.324,367.067,184.662,382.342,205.164C397.617,225.667,397.617,242.333,397.617,250.667L397.617,259" class="er relationshipLine"></path><path marker-start="url(#ONE_OR_MORE_START)" marker-end="url(#ONLY_ONE_END)" style="stroke: gray; fill: none;" d="M26.373,1037L21.58,1045.333C16.788,1053.667,7.202,1070.333,51.607,1092.42C96.011,1114.507,194.406,1142.015,243.603,1155.768L292.8,1169.522" class="er relationshipLine"></path><path marker-start="url(#ONE_OR_MORE_START)" marker-end="url(#ONLY_ONE_END)" style="stroke: gray; fill: none;" d="M96.161,1037L96.404,1045.333C96.647,1053.667,97.132,1070.333,129.905,1091.47C162.678,1112.607,227.739,1138.214,260.269,1151.017L292.8,1163.821" class="er relationshipLine"></path><path marker-start="url(#ONE_OR_MORE_START)" marker-end="url(#ONLY_ONE_END)" style="stroke: gray; fill: none;" d="M165.6,999.324L179.269,1013.936C192.939,1028.549,220.278,1057.775,242.167,1080.721C264.056,1103.667,280.495,1120.333,288.715,1128.667L296.934,1137" class="er relationshipLine"></path><path marker-start="url(#ZERO_OR_MORE_START)" marker-end="url(#ZERO_OR_ONE_END)" style="stroke: gray; fill: none;" d="M334.45,381.03L294.175,399.858C253.9,418.687,173.35,456.343,133.075,497.005C92.8,537.667,92.8,581.333,92.8,625C92.8,668.667,92.8,712.333,92.8,742.5C92.8,772.667,92.8,789.333,92.8,797.667L92.8,806" class="er relationshipLine"></path><path marker-start="url(#ZERO_OR_MORE_START)" marker-end="url(#ZERO_OR_ONE_END)" style="stroke: gray; fill: none;" d="M397.617,444L397.617,452.333C397.617,460.667,397.617,477.333,397.617,494C397.617,510.667,397.617,527.333,397.617,535.667L397.617,544" class="er relationshipLine"></path><path marker-start="url(#ZERO_OR_ONE_START)" marker-end="url(#ZERO_OR_ONE_END)" style="stroke: gray; fill: none;" d="M460.783,387.505L491.922,405.254C523.061,423.003,585.339,458.502,616.478,498.084C647.617,537.667,647.617,581.333,647.617,625C647.617,668.667,647.617,712.333,647.617,761.75C647.617,811.167,647.617,866.333,647.617,921.5C647.617,976.667,647.617,1031.833,605.147,1072.862C562.678,1113.89,477.739,1140.781,435.269,1154.226L392.8,1167.671" class="er relationshipLine"></path><path marker-start="url(#ONLY_ONE_START)" marker-end="url(#ZERO_OR_ONE_END)" style="stroke: gray; fill: none;" d="M324.817,676.163L305.883,689.469C286.95,702.775,249.083,729.388,222.547,753.32C196.011,777.251,180.806,798.503,173.203,809.128L165.6,819.754" class="er relationshipLine"></path><path marker-start="url(#ONE_OR_MORE_START)" marker-end="url(#ONLY_ONE_END)" style="stroke: gray; fill: none;" d="M366.701,706L363.52,714.333C360.339,722.667,353.978,739.333,350.797,775.25C347.617,811.167,347.617,866.333,347.617,921.5C347.617,976.667,347.617,1031.833,347.201,1067.75C346.785,1103.667,345.953,1120.333,345.537,1128.667L345.121,1137" class="er relationshipLine"></path><path marker-start="url(#ONE_OR_MORE_START)" marker-end="url(#ONLY_ONE_END)" style="stroke: gray; fill: none;" d="M428.533,706L431.713,714.333C434.894,722.667,441.255,739.333,444.436,775.25C447.617,811.167,447.617,866.333,447.617,921.5C447.617,976.667,447.617,1031.833,438.481,1067.828C429.344,1103.822,411.072,1120.645,401.936,1129.056L392.8,1137.467" class="er relationshipLine"></path><path marker-start="url(#ONE_OR_MORE_START)" marker-end="url(#ONLY_ONE_END)" style="stroke: gray; fill: none;" d="M470.417,688.579L483.283,699.816C496.15,711.052,521.883,733.526,534.75,772.346C547.617,811.167,547.617,866.333,547.617,921.5C547.617,976.667,547.617,1031.833,521.814,1071.574C496.011,1111.314,444.406,1135.628,418.603,1147.785L392.8,1159.942" class="er relationshipLine"></path><g transform="translate(20,806 )" id="entity-Benutzer-fde7d49d-48b7-58f6-b747-aa53049c1748"><rect height="231" width="145.5999984741211" y="0" x="0" class="er entityBox"></rect><text transform="translate(72.79999923706055,12)" style="dominant-baseline: middle; text-anchor: middle; font-size: 12px;" y="0" x="0" id="text-entity-Benutzer-fde7d49d-48b7-58f6-b747-aa53049c1748" class="er entityLabel">Benutzer</text><rect height="23" width="87.06666564941406" y="24" x="0" class="er attributeBoxOdd"></rect><text transform="translate(5,35.5)" style="dominant-baseline: middle; font-size: 10.2px;" y="0" x="0" id="text-entity-Benutzer-fde7d49d-48b7-58f6-b747-aa53049c1748-attr-1-type" class="er entityLabel">id</text><rect height="23" width="34.933332443237305" y="24" x="87.06666564941406" class="er attributeBoxOdd"></rect><text transform="translate(92.06666564941406,35.5)" style="dominant-baseline: middle; font-size: 10.2px;" y="0" x="0" id="text-entity-Benutzer-fde7d49d-48b7-58f6-b747-aa53049c1748-attr-1-name" class="er entityLabel">int</text><rect height="23" width="23.600000381469727" y="24" x="121.99999809265137" class="er attributeBoxOdd"></rect><text transform="translate(126.99999809265137,35.5)" style="dominant-baseline: middle; font-size: 10.2px;" y="0" x="0" id="text-entity-Benutzer-fde7d49d-48b7-58f6-b747-aa53049c1748-attr-1-key" class="er entityLabel">PK</text><rect height="23" width="87.06666564941406" y="47" x="0" class="er attributeBoxEven"></rect><text transform="translate(5,58.5)" style="dominant-baseline: middle; font-size: 10.2px;" y="0" x="0" id="text-entity-Benutzer-fde7d49d-48b7-58f6-b747-aa53049c1748-attr-2-type" class="er entityLabel">benutzername</text><rect height="23" width="34.933332443237305" y="47" x="87.06666564941406" class="er attributeBoxEven"></rect><text transform="translate(92.06666564941406,58.5)" style="dominant-baseline: middle; font-size: 10.2px;" y="0" x="0" id="text-entity-Benutzer-fde7d49d-48b7-58f6-b747-aa53049c1748-attr-2-name" class="er entityLabel">string</text><rect height="23" width="23.600000381469727" y="47" x="121.99999809265137" class="er attributeBoxEven"></rect><text transform="translate(126.99999809265137,58.5)" style="dominant-baseline: middle; font-size: 10.2px;" y="0" x="0" id="text-entity-Benutzer-fde7d49d-48b7-58f6-b747-aa53049c1748-attr-2-key" class="er entityLabel"></text><rect height="23" width="87.06666564941406" y="70" x="0" class="er attributeBoxOdd"></rect><text transform="translate(5,81.5)" style="dominant-baseline: middle; font-size: 10.2px;" y="0" x="0" id="text-entity-Benutzer-fde7d49d-48b7-58f6-b747-aa53049c1748-attr-3-type" class="er entityLabel">email</text><rect height="23" width="34.933332443237305" y="70" x="87.06666564941406" class="er attributeBoxOdd"></rect><text transform="translate(92.06666564941406,81.5)" style="dominant-baseline: middle; font-size: 10.2px;" y="0" x="0" id="text-entity-Benutzer-fde7d49d-48b7-58f6-b747-aa53049c1748-attr-3-name" class="er entityLabel">string</text><rect height="23" width="23.600000381469727" y="70" x="121.99999809265137" class="er attributeBoxOdd"></rect><text transform="translate(126.99999809265137,81.5)" style="dominant-baseline: middle; font-size: 10.2px;" y="0" x="0" id="text-entity-Benutzer-fde7d49d-48b7-58f6-b747-aa53049c1748-attr-3-key" class="er entityLabel"></text><rect height="23" width="87.06666564941406" y="93" x="0" class="er attributeBoxEven"></rect><text transform="translate(5,104.5)" style="dominant-baseline: middle; font-size: 10.2px;" y="0" x="0" id="text-entity-Benutzer-fde7d49d-48b7-58f6-b747-aa53049c1748-attr-4-type" class="er entityLabel">passwort</text><rect height="23" width="34.933332443237305" y="93" x="87.06666564941406" class="er attributeBoxEven"></rect><text transform="translate(92.06666564941406,104.5)" style="dominant-baseline: middle; font-size: 10.2px;" y="0" x="0" id="text-entity-Benutzer-fde7d49d-48b7-58f6-b747-aa53049c1748-attr-4-name" class="er entityLabel">string</text><rect height="23" width="23.600000381469727" y="93" x="121.99999809265137" class="er attributeBoxEven"></rect><text transform="translate(126.99999809265137,104.5)" style="dominant-baseline: middle; font-size: 10.2px;" y="0" x="0" id="text-entity-Benutzer-fde7d49d-48b7-58f6-b747-aa53049c1748-attr-4-key" class="er entityLabel"></text><rect height="23" width="87.06666564941406" y="116" x="0" class="er attributeBoxOdd"></rect><text transform="translate(5,127.5)" style="dominant-baseline: middle; font-size: 10.2px;" y="0" x="0" id="text-entity-Benutzer-fde7d49d-48b7-58f6-b747-aa53049c1748-attr-5-type" class="er entityLabel">xp</text><rect height="23" width="34.933332443237305" y="116" x="87.06666564941406" class="er attributeBoxOdd"></rect><text transform="translate(92.06666564941406,127.5)" style="dominant-baseline: middle; font-size: 10.2px;" y="0" x="0" id="text-entity-Benutzer-fde7d49d-48b7-58f6-b747-aa53049c1748-attr-5-name" class="er entityLabel">int</text><rect height="23" width="23.600000381469727" y="116" x="121.99999809265137" class="er attributeBoxOdd"></rect><text transform="translate(126.99999809265137,127.5)" style="dominant-baseline: middle; font-size: 10.2px;" y="0" x="0" id="text-entity-Benutzer-fde7d49d-48b7-58f6-b747-aa53049c1748-attr-5-key" class="er entityLabel"></text><rect height="23" width="87.06666564941406" y="139" x="0" class="er attributeBoxEven"></rect><text transform="translate(5,150.5)" style="dominant-baseline: middle; font-size: 10.2px;" y="0" x="0" id="text-entity-Benutzer-fde7d49d-48b7-58f6-b747-aa53049c1748-attr-6-type" class="er entityLabel">profilBildId</text><rect height="23" width="34.933332443237305" y="139" x="87.06666564941406" class="er attributeBoxEven"></rect><text transform="translate(92.06666564941406,150.5)" style="dominant-baseline: middle; font-size: 10.2px;" y="0" x="0" id="text-entity-Benutzer-fde7d49d-48b7-58f6-b747-aa53049c1748-attr-6-name" class="er entityLabel">int</text><rect height="23" width="23.600000381469727" y="139" x="121.99999809265137" class="er attributeBoxEven"></rect><text transform="translate(126.99999809265137,150.5)" style="dominant-baseline: middle; font-size: 10.2px;" y="0" x="0" id="text-entity-Benutzer-fde7d49d-48b7-58f6-b747-aa53049c1748-attr-6-key" class="er entityLabel"></text><rect height="23" width="87.06666564941406" y="162" x="0" class="er attributeBoxOdd"></rect><text transform="translate(5,173.5)" style="dominant-baseline: middle; font-size: 10.2px;" y="0" x="0" id="text-entity-Benutzer-fde7d49d-48b7-58f6-b747-aa53049c1748-attr-7-type" class="er entityLabel">hintergrundBildId</text><rect height="23" width="34.933332443237305" y="162" x="87.06666564941406" class="er attributeBoxOdd"></rect><text transform="translate(92.06666564941406,173.5)" style="dominant-baseline: middle; font-size: 10.2px;" y="0" x="0" id="text-entity-Benutzer-fde7d49d-48b7-58f6-b747-aa53049c1748-attr-7-name" class="er entityLabel">int</text><rect height="23" width="23.600000381469727" y="162" x="121.99999809265137" class="er attributeBoxOdd"></rect><text transform="translate(126.99999809265137,173.5)" style="dominant-baseline: middle; font-size: 10.2px;" y="0" x="0" id="text-entity-Benutzer-fde7d49d-48b7-58f6-b747-aa53049c1748-attr-7-key" class="er entityLabel">FK</text><rect height="23" width="87.06666564941406" y="185" x="0" class="er attributeBoxEven"></rect><text transform="translate(5,196.5)" style="dominant-baseline: middle; font-size: 10.2px;" y="0" x="0" id="text-entity-Benutzer-fde7d49d-48b7-58f6-b747-aa53049c1748-attr-8-type" class="er entityLabel">bannerBildId</text><rect height="23" width="34.933332443237305" y="185" x="87.06666564941406" class="er attributeBoxEven"></rect><text transform="translate(92.06666564941406,196.5)" style="dominant-baseline: middle; font-size: 10.2px;" y="0" x="0" id="text-entity-Benutzer-fde7d49d-48b7-58f6-b747-aa53049c1748-attr-8-name" class="er entityLabel">int</text><rect height="23" width="23.600000381469727" y="185" x="121.99999809265137" class="er attributeBoxEven"></rect><text transform="translate(126.99999809265137,196.5)" style="dominant-baseline: middle; font-size: 10.2px;" y="0" x="0" id="text-entity-Benutzer-fde7d49d-48b7-58f6-b747-aa53049c1748-attr-8-key" class="er entityLabel">FK</text><rect height="23" width="87.06666564941406" y="208" x="0" class="er attributeBoxOdd"></rect><text transform="translate(5,219.5)" style="dominant-baseline: middle; font-size: 10.2px;" y="0" x="0" id="text-entity-Benutzer-fde7d49d-48b7-58f6-b747-aa53049c1748-attr-9-type" class="er entityLabel">akzentFarbe</text><rect height="23" width="34.933332443237305" y="208" x="87.06666564941406" class="er attributeBoxOdd"></rect><text transform="translate(92.06666564941406,219.5)" style="dominant-baseline: middle; font-size: 10.2px;" y="0" x="0" id="text-entity-Benutzer-fde7d49d-48b7-58f6-b747-aa53049c1748-attr-9-name" class="er entityLabel">string</text><rect height="23" width="23.600000381469727" y="208" x="121.99999809265137" class="er attributeBoxOdd"></rect><text transform="translate(126.99999809265137,219.5)" style="dominant-baseline: middle; font-size: 10.2px;" y="0" x="0" id="text-entity-Benutzer-fde7d49d-48b7-58f6-b747-aa53049c1748-attr-9-key" class="er entityLabel"></text></g><g transform="translate(189.26667404174805,20 )" id="entity-Kommentar-a27998a8-f7cd-5ffb-8c8a-8122ba8d67e5"><rect height="139" width="116.70000076293945" y="0" x="0" class="er entityBox"></rect><text transform="translate(58.35000038146973,12)" style="dominant-baseline: middle; text-anchor: middle; font-size: 12px;" y="0" x="0" id="text-entity-Kommentar-a27998a8-f7cd-5ffb-8c8a-8122ba8d67e5" class="er entityLabel">Kommentar</text><rect height="23" width="58.16666793823242" y="24" x="0" class="er attributeBoxOdd"></rect><text transform="translate(5,35.5)" style="dominant-baseline: middle; font-size: 10.2px;" y="0" x="0" id="text-entity-Kommentar-a27998a8-f7cd-5ffb-8c8a-8122ba8d67e5-attr-1-type" class="er entityLabel">id</text><rect height="23" width="34.933332443237305" y="24" x="58.16666793823242" class="er attributeBoxOdd"></rect><text transform="translate(63.16666793823242,35.5)" style="dominant-baseline: middle; font-size: 10.2px;" y="0" x="0" id="text-entity-Kommentar-a27998a8-f7cd-5ffb-8c8a-8122ba8d67e5-attr-1-name" class="er entityLabel">int</text><rect height="23" width="23.600000381469727" y="24" x="93.10000038146973" class="er attributeBoxOdd"></rect><text transform="translate(98.10000038146973,35.5)" style="dominant-baseline: middle; font-size: 10.2px;" y="0" x="0" id="text-entity-Kommentar-a27998a8-f7cd-5ffb-8c8a-8122ba8d67e5-attr-1-key" class="er entityLabel">PK</text><rect height="23" width="58.16666793823242" y="47" x="0" class="er attributeBoxEven"></rect><text transform="translate(5,58.5)" style="dominant-baseline: middle; font-size: 10.2px;" y="0" x="0" id="text-entity-Kommentar-a27998a8-f7cd-5ffb-8c8a-8122ba8d67e5-attr-2-type" class="er entityLabel">text</text><rect height="23" width="34.933332443237305" y="47" x="58.16666793823242" class="er attributeBoxEven"></rect><text transform="translate(63.16666793823242,58.5)" style="dominant-baseline: middle; font-size: 10.2px;" y="0" x="0" id="text-entity-Kommentar-a27998a8-f7cd-5ffb-8c8a-8122ba8d67e5-attr-2-name" class="er entityLabel">string</text><rect height="23" width="23.600000381469727" y="47" x="93.10000038146973" class="er attributeBoxEven"></rect><text transform="translate(98.10000038146973,58.5)" style="dominant-baseline: middle; font-size: 10.2px;" y="0" x="0" id="text-entity-Kommentar-a27998a8-f7cd-5ffb-8c8a-8122ba8d67e5-attr-2-key" class="er entityLabel"></text><rect height="23" width="58.16666793823242" y="70" x="0" class="er attributeBoxOdd"></rect><text transform="translate(5,81.5)" style="dominant-baseline: middle; font-size: 10.2px;" y="0" x="0" id="text-entity-Kommentar-a27998a8-f7cd-5ffb-8c8a-8122ba8d67e5-attr-3-type" class="er entityLabel">likes</text><rect height="23" width="34.933332443237305" y="70" x="58.16666793823242" class="er attributeBoxOdd"></rect><text transform="translate(63.16666793823242,81.5)" style="dominant-baseline: middle; font-size: 10.2px;" y="0" x="0" id="text-entity-Kommentar-a27998a8-f7cd-5ffb-8c8a-8122ba8d67e5-attr-3-name" class="er entityLabel">int</text><rect height="23" width="23.600000381469727" y="70" x="93.10000038146973" class="er attributeBoxOdd"></rect><text transform="translate(98.10000038146973,81.5)" style="dominant-baseline: middle; font-size: 10.2px;" y="0" x="0" id="text-entity-Kommentar-a27998a8-f7cd-5ffb-8c8a-8122ba8d67e5-attr-3-key" class="er entityLabel"></text><rect height="23" width="58.16666793823242" y="93" x="0" class="er attributeBoxEven"></rect><text transform="translate(5,104.5)" style="dominant-baseline: middle; font-size: 10.2px;" y="0" x="0" id="text-entity-Kommentar-a27998a8-f7cd-5ffb-8c8a-8122ba8d67e5-attr-4-type" class="er entityLabel">benutzerId</text><rect height="23" width="34.933332443237305" y="93" x="58.16666793823242" class="er attributeBoxEven"></rect><text transform="translate(63.16666793823242,104.5)" style="dominant-baseline: middle; font-size: 10.2px;" y="0" x="0" id="text-entity-Kommentar-a27998a8-f7cd-5ffb-8c8a-8122ba8d67e5-attr-4-name" class="er entityLabel">int</text><rect height="23" width="23.600000381469727" y="93" x="93.10000038146973" class="er attributeBoxEven"></rect><text transform="translate(98.10000038146973,104.5)" style="dominant-baseline: middle; font-size: 10.2px;" y="0" x="0" id="text-entity-Kommentar-a27998a8-f7cd-5ffb-8c8a-8122ba8d67e5-attr-4-key" class="er entityLabel">FK</text><rect height="23" width="58.16666793823242" y="116" x="0" class="er attributeBoxOdd"></rect><text transform="translate(5,127.5)" style="dominant-baseline: middle; font-size: 10.2px;" y="0" x="0" id="text-entity-Kommentar-a27998a8-f7cd-5ffb-8c8a-8122ba8d67e5-attr-5-type" class="er entityLabel">beitragId</text><rect height="23" width="34.933332443237305" y="116" x="58.16666793823242" class="er attributeBoxOdd"></rect><text transform="translate(63.16666793823242,127.5)" style="dominant-baseline: middle; font-size: 10.2px;" y="0" x="0" id="text-entity-Kommentar-a27998a8-f7cd-5ffb-8c8a-8122ba8d67e5-attr-5-name" class="er entityLabel">int</text><rect height="23" width="23.600000381469727" y="116" x="93.10000038146973" class="er attributeBoxOdd"></rect><text transform="translate(98.10000038146973,127.5)" style="dominant-baseline: middle; font-size: 10.2px;" y="0" x="0" id="text-entity-Kommentar-a27998a8-f7cd-5ffb-8c8a-8122ba8d67e5-attr-5-key" class="er entityLabel">FK</text></g><g transform="translate(324.8166694641113,544 )" id="entity-Community-bd8f9868-7f31-5baf-872b-a65ae610feeb"><rect height="162" width="145.5999984741211" y="0" x="0" class="er entityBox"></rect><text transform="translate(72.79999923706055,12)" style="dominant-baseline: middle; text-anchor: middle; font-size: 12px;" y="0" x="0" id="text-entity-Community-bd8f9868-7f31-5baf-872b-a65ae610feeb" class="er entityLabel">Community</text><rect height="23" width="87.06666564941406" y="24" x="0" class="er attributeBoxOdd"></rect><text transform="translate(5,35.5)" style="dominant-baseline: middle; font-size: 10.2px;" y="0" x="0" id="text-entity-Community-bd8f9868-7f31-5baf-872b-a65ae610feeb-attr-1-type" class="er entityLabel">id</text><rect height="23" width="34.933332443237305" y="24" x="87.06666564941406" class="er attributeBoxOdd"></rect><text transform="translate(92.06666564941406,35.5)" style="dominant-baseline: middle; font-size: 10.2px;" y="0" x="0" id="text-entity-Community-bd8f9868-7f31-5baf-872b-a65ae610feeb-attr-1-name" class="er entityLabel">int</text><rect height="23" width="23.600000381469727" y="24" x="121.99999809265137" class="er attributeBoxOdd"></rect><text transform="translate(126.99999809265137,35.5)" style="dominant-baseline: middle; font-size: 10.2px;" y="0" x="0" id="text-entity-Community-bd8f9868-7f31-5baf-872b-a65ae610feeb-attr-1-key" class="er entityLabel">PK</text><rect height="23" width="87.06666564941406" y="47" x="0" class="er attributeBoxEven"></rect><text transform="translate(5,58.5)" style="dominant-baseline: middle; font-size: 10.2px;" y="0" x="0" id="text-entity-Community-bd8f9868-7f31-5baf-872b-a65ae610feeb-attr-2-type" class="er entityLabel">name</text><rect height="23" width="34.933332443237305" y="47" x="87.06666564941406" class="er attributeBoxEven"></rect><text transform="translate(92.06666564941406,58.5)" style="dominant-baseline: middle; font-size: 10.2px;" y="0" x="0" id="text-entity-Community-bd8f9868-7f31-5baf-872b-a65ae610feeb-attr-2-name" class="er entityLabel">string</text><rect height="23" width="23.600000381469727" y="47" x="121.99999809265137" class="er attributeBoxEven"></rect><text transform="translate(126.99999809265137,58.5)" style="dominant-baseline: middle; font-size: 10.2px;" y="0" x="0" id="text-entity-Community-bd8f9868-7f31-5baf-872b-a65ae610feeb-attr-2-key" class="er entityLabel"></text><rect height="23" width="87.06666564941406" y="70" x="0" class="er attributeBoxOdd"></rect><text transform="translate(5,81.5)" style="dominant-baseline: middle; font-size: 10.2px;" y="0" x="0" id="text-entity-Community-bd8f9868-7f31-5baf-872b-a65ae610feeb-attr-3-type" class="er entityLabel">profilBildId</text><rect height="23" width="34.933332443237305" y="70" x="87.06666564941406" class="er attributeBoxOdd"></rect><text transform="translate(92.06666564941406,81.5)" style="dominant-baseline: middle; font-size: 10.2px;" y="0" x="0" id="text-entity-Community-bd8f9868-7f31-5baf-872b-a65ae610feeb-attr-3-name" class="er entityLabel">int</text><rect height="23" width="23.600000381469727" y="70" x="121.99999809265137" class="er attributeBoxOdd"></rect><text transform="translate(126.99999809265137,81.5)" style="dominant-baseline: middle; font-size: 10.2px;" y="0" x="0" id="text-entity-Community-bd8f9868-7f31-5baf-872b-a65ae610feeb-attr-3-key" class="er entityLabel">FK</text><rect height="23" width="87.06666564941406" y="93" x="0" class="er attributeBoxEven"></rect><text transform="translate(5,104.5)" style="dominant-baseline: middle; font-size: 10.2px;" y="0" x="0" id="text-entity-Community-bd8f9868-7f31-5baf-872b-a65ae610feeb-attr-4-type" class="er entityLabel">hintergrundBildId</text><rect height="23" width="34.933332443237305" y="93" x="87.06666564941406" class="er attributeBoxEven"></rect><text transform="translate(92.06666564941406,104.5)" style="dominant-baseline: middle; font-size: 10.2px;" y="0" x="0" id="text-entity-Community-bd8f9868-7f31-5baf-872b-a65ae610feeb-attr-4-name" class="er entityLabel">int</text><rect height="23" width="23.600000381469727" y="93" x="121.99999809265137" class="er attributeBoxEven"></rect><text transform="translate(126.99999809265137,104.5)" style="dominant-baseline: middle; font-size: 10.2px;" y="0" x="0" id="text-entity-Community-bd8f9868-7f31-5baf-872b-a65ae610feeb-attr-4-key" class="er entityLabel">FK</text><rect height="23" width="87.06666564941406" y="116" x="0" class="er attributeBoxOdd"></rect><text transform="translate(5,127.5)" style="dominant-baseline: middle; font-size: 10.2px;" y="0" x="0" id="text-entity-Community-bd8f9868-7f31-5baf-872b-a65ae610feeb-attr-5-type" class="er entityLabel">bannerBildId</text><rect height="23" width="34.933332443237305" y="116" x="87.06666564941406" class="er attributeBoxOdd"></rect><text transform="translate(92.06666564941406,127.5)" style="dominant-baseline: middle; font-size: 10.2px;" y="0" x="0" id="text-entity-Community-bd8f9868-7f31-5baf-872b-a65ae610feeb-attr-5-name" class="er entityLabel">int</text><rect height="23" width="23.600000381469727" y="116" x="121.99999809265137" class="er attributeBoxOdd"></rect><text transform="translate(126.99999809265137,127.5)" style="dominant-baseline: middle; font-size: 10.2px;" y="0" x="0" id="text-entity-Community-bd8f9868-7f31-5baf-872b-a65ae610feeb-attr-5-key" class="er entityLabel">FK</text><rect height="23" width="87.06666564941406" y="139" x="0" class="er attributeBoxEven"></rect><text transform="translate(5,150.5)" style="dominant-baseline: middle; font-size: 10.2px;" y="0" x="0" id="text-entity-Community-bd8f9868-7f31-5baf-872b-a65ae610feeb-attr-6-type" class="er entityLabel">adminBenutzerId</text><rect height="23" width="34.933332443237305" y="139" x="87.06666564941406" class="er attributeBoxEven"></rect><text transform="translate(92.06666564941406,150.5)" style="dominant-baseline: middle; font-size: 10.2px;" y="0" x="0" id="text-entity-Community-bd8f9868-7f31-5baf-872b-a65ae610feeb-attr-6-name" class="er entityLabel">int</text><rect height="23" width="23.600000381469727" y="139" x="121.99999809265137" class="er attributeBoxEven"></rect><text transform="translate(126.99999809265137,150.5)" style="dominant-baseline: middle; font-size: 10.2px;" y="0" x="0" id="text-entity-Community-bd8f9868-7f31-5baf-872b-a65ae610feeb-attr-6-key" class="er entityLabel">FK</text></g><g transform="translate(334.450008392334,259 )" id="entity-Beitrag-1fe86c6f-4fa9-5742-9c3c-445977ba9a6b"><rect height="185" width="126.33333206176758" y="0" x="0" class="er entityBox"></rect><text transform="translate(63.16666603088379,12)" style="dominant-baseline: middle; text-anchor: middle; font-size: 12px;" y="0" x="0" id="text-entity-Beitrag-1fe86c6f-4fa9-5742-9c3c-445977ba9a6b" class="er entityLabel">Beitrag</text><rect height="23" width="67.79999923706055" y="24" x="0" class="er attributeBoxOdd"></rect><text transform="translate(5,35.5)" style="dominant-baseline: middle; font-size: 10.2px;" y="0" x="0" id="text-entity-Beitrag-1fe86c6f-4fa9-5742-9c3c-445977ba9a6b-attr-1-type" class="er entityLabel">id</text><rect height="23" width="34.933332443237305" y="24" x="67.79999923706055" class="er attributeBoxOdd"></rect><text transform="translate(72.79999923706055,35.5)" style="dominant-baseline: middle; font-size: 10.2px;" y="0" x="0" id="text-entity-Beitrag-1fe86c6f-4fa9-5742-9c3c-445977ba9a6b-attr-1-name" class="er entityLabel">int</text><rect height="23" width="23.600000381469727" y="24" x="102.73333168029785" class="er attributeBoxOdd"></rect><text transform="translate(107.73333168029785,35.5)" style="dominant-baseline: middle; font-size: 10.2px;" y="0" x="0" id="text-entity-Beitrag-1fe86c6f-4fa9-5742-9c3c-445977ba9a6b-attr-1-key" class="er entityLabel">PK</text><rect height="23" width="67.79999923706055" y="47" x="0" class="er attributeBoxEven"></rect><text transform="translate(5,58.5)" style="dominant-baseline: middle; font-size: 10.2px;" y="0" x="0" id="text-entity-Beitrag-1fe86c6f-4fa9-5742-9c3c-445977ba9a6b-attr-2-type" class="er entityLabel">titel</text><rect height="23" width="34.933332443237305" y="47" x="67.79999923706055" class="er attributeBoxEven"></rect><text transform="translate(72.79999923706055,58.5)" style="dominant-baseline: middle; font-size: 10.2px;" y="0" x="0" id="text-entity-Beitrag-1fe86c6f-4fa9-5742-9c3c-445977ba9a6b-attr-2-name" class="er entityLabel">string</text><rect height="23" width="23.600000381469727" y="47" x="102.73333168029785" class="er attributeBoxEven"></rect><text transform="translate(107.73333168029785,58.5)" style="dominant-baseline: middle; font-size: 10.2px;" y="0" x="0" id="text-entity-Beitrag-1fe86c6f-4fa9-5742-9c3c-445977ba9a6b-attr-2-key" class="er entityLabel"></text><rect height="23" width="67.79999923706055" y="70" x="0" class="er attributeBoxOdd"></rect><text transform="translate(5,81.5)" style="dominant-baseline: middle; font-size: 10.2px;" y="0" x="0" id="text-entity-Beitrag-1fe86c6f-4fa9-5742-9c3c-445977ba9a6b-attr-3-type" class="er entityLabel">text</text><rect height="23" width="34.933332443237305" y="70" x="67.79999923706055" class="er attributeBoxOdd"></rect><text transform="translate(72.79999923706055,81.5)" style="dominant-baseline: middle; font-size: 10.2px;" y="0" x="0" id="text-entity-Beitrag-1fe86c6f-4fa9-5742-9c3c-445977ba9a6b-attr-3-name" class="er entityLabel">string</text><rect height="23" width="23.600000381469727" y="70" x="102.73333168029785" class="er attributeBoxOdd"></rect><text transform="translate(107.73333168029785,81.5)" style="dominant-baseline: middle; font-size: 10.2px;" y="0" x="0" id="text-entity-Beitrag-1fe86c6f-4fa9-5742-9c3c-445977ba9a6b-attr-3-key" class="er entityLabel"></text><rect height="23" width="67.79999923706055" y="93" x="0" class="er attributeBoxEven"></rect><text transform="translate(5,104.5)" style="dominant-baseline: middle; font-size: 10.2px;" y="0" x="0" id="text-entity-Beitrag-1fe86c6f-4fa9-5742-9c3c-445977ba9a6b-attr-4-type" class="er entityLabel">bildId</text><rect height="23" width="34.933332443237305" y="93" x="67.79999923706055" class="er attributeBoxEven"></rect><text transform="translate(72.79999923706055,104.5)" style="dominant-baseline: middle; font-size: 10.2px;" y="0" x="0" id="text-entity-Beitrag-1fe86c6f-4fa9-5742-9c3c-445977ba9a6b-attr-4-name" class="er entityLabel">int</text><rect height="23" width="23.600000381469727" y="93" x="102.73333168029785" class="er attributeBoxEven"></rect><text transform="translate(107.73333168029785,104.5)" style="dominant-baseline: middle; font-size: 10.2px;" y="0" x="0" id="text-entity-Beitrag-1fe86c6f-4fa9-5742-9c3c-445977ba9a6b-attr-4-key" class="er entityLabel">FK</text><rect height="23" width="67.79999923706055" y="116" x="0" class="er attributeBoxOdd"></rect><text transform="translate(5,127.5)" style="dominant-baseline: middle; font-size: 10.2px;" y="0" x="0" id="text-entity-Beitrag-1fe86c6f-4fa9-5742-9c3c-445977ba9a6b-attr-5-type" class="er entityLabel">likes</text><rect height="23" width="34.933332443237305" y="116" x="67.79999923706055" class="er attributeBoxOdd"></rect><text transform="translate(72.79999923706055,127.5)" style="dominant-baseline: middle; font-size: 10.2px;" y="0" x="0" id="text-entity-Beitrag-1fe86c6f-4fa9-5742-9c3c-445977ba9a6b-attr-5-name" class="er entityLabel">int</text><rect height="23" width="23.600000381469727" y="116" x="102.73333168029785" class="er attributeBoxOdd"></rect><text transform="translate(107.73333168029785,127.5)" style="dominant-baseline: middle; font-size: 10.2px;" y="0" x="0" id="text-entity-Beitrag-1fe86c6f-4fa9-5742-9c3c-445977ba9a6b-attr-5-key" class="er entityLabel"></text><rect height="23" width="67.79999923706055" y="139" x="0" class="er attributeBoxEven"></rect><text transform="translate(5,150.5)" style="dominant-baseline: middle; font-size: 10.2px;" y="0" x="0" id="text-entity-Beitrag-1fe86c6f-4fa9-5742-9c3c-445977ba9a6b-attr-6-type" class="er entityLabel">benutzerId</text><rect height="23" width="34.933332443237305" y="139" x="67.79999923706055" class="er attributeBoxEven"></rect><text transform="translate(72.79999923706055,150.5)" style="dominant-baseline: middle; font-size: 10.2px;" y="0" x="0" id="text-entity-Beitrag-1fe86c6f-4fa9-5742-9c3c-445977ba9a6b-attr-6-name" class="er entityLabel">int</text><rect height="23" width="23.600000381469727" y="139" x="102.73333168029785" class="er attributeBoxEven"></rect><text transform="translate(107.73333168029785,150.5)" style="dominant-baseline: middle; font-size: 10.2px;" y="0" x="0" id="text-entity-Beitrag-1fe86c6f-4fa9-5742-9c3c-445977ba9a6b-attr-6-key" class="er entityLabel">FK</text><rect height="23" width="67.79999923706055" y="162" x="0" class="er attributeBoxOdd"></rect><text transform="translate(5,173.5)" style="dominant-baseline: middle; font-size: 10.2px;" y="0" x="0" id="text-entity-Beitrag-1fe86c6f-4fa9-5742-9c3c-445977ba9a6b-attr-7-type" class="er entityLabel">communityId</text><rect height="23" width="34.933332443237305" y="162" x="67.79999923706055" class="er attributeBoxOdd"></rect><text transform="translate(72.79999923706055,173.5)" style="dominant-baseline: middle; font-size: 10.2px;" y="0" x="0" id="text-entity-Beitrag-1fe86c6f-4fa9-5742-9c3c-445977ba9a6b-attr-7-name" class="er entityLabel">int</text><rect height="23" width="23.600000381469727" y="162" x="102.73333168029785" class="er attributeBoxOdd"></rect><text transform="translate(107.73333168029785,173.5)" style="dominant-baseline: middle; font-size: 10.2px;" y="0" x="0" id="text-entity-Beitrag-1fe86c6f-4fa9-5742-9c3c-445977ba9a6b-attr-7-key" class="er entityLabel">FK</text></g><g transform="translate(292.8000030517578,1137 )" id="entity-Bild-e7498748-baa8-5657-8a2c-dc632dc2bac5"><rect height="93" width="100" y="0" x="0" class="er entityBox"></rect><text transform="translate(50,12)" style="dominant-baseline: middle; text-anchor: middle; font-size: 12px;" y="0" x="0" id="text-entity-Bild-e7498748-baa8-5657-8a2c-dc632dc2bac5" class="er entityLabel">Bild</text><rect height="23" width="35.222222646077476" y="24" x="0" class="er attributeBoxOdd"></rect><text transform="translate(5,35.5)" style="dominant-baseline: middle; font-size: 10.2px;" y="0" x="0" id="text-entity-Bild-e7498748-baa8-5657-8a2c-dc632dc2bac5-attr-1-type" class="er entityLabel">id</text><rect height="23" width="38.055554707845054" y="24" x="35.222222646077476" class="er attributeBoxOdd"></rect><text transform="translate(40.222222646077476,35.5)" style="dominant-baseline: middle; font-size: 10.2px;" y="0" x="0" id="text-entity-Bild-e7498748-baa8-5657-8a2c-dc632dc2bac5-attr-1-name" class="er entityLabel">int</text><rect height="23" width="26.722222646077473" y="24" x="73.27777735392253" class="er attributeBoxOdd"></rect><text transform="translate(78.27777735392253,35.5)" style="dominant-baseline: middle; font-size: 10.2px;" y="0" x="0" id="text-entity-Bild-e7498748-baa8-5657-8a2c-dc632dc2bac5-attr-1-key" class="er entityLabel">PK</text><rect height="23" width="35.222222646077476" y="47" x="0" class="er attributeBoxEven"></rect><text transform="translate(5,58.5)" style="dominant-baseline: middle; font-size: 10.2px;" y="0" x="0" id="text-entity-Bild-e7498748-baa8-5657-8a2c-dc632dc2bac5-attr-2-type" class="er entityLabel">pfad</text><rect height="23" width="38.055554707845054" y="47" x="35.222222646077476" class="er attributeBoxEven"></rect><text transform="translate(40.222222646077476,58.5)" style="dominant-baseline: middle; font-size: 10.2px;" y="0" x="0" id="text-entity-Bild-e7498748-baa8-5657-8a2c-dc632dc2bac5-attr-2-name" class="er entityLabel">string</text><rect height="23" width="26.722222646077473" y="47" x="73.27777735392253" class="er attributeBoxEven"></rect><text transform="translate(78.27777735392253,58.5)" style="dominant-baseline: middle; font-size: 10.2px;" y="0" x="0" id="text-entity-Bild-e7498748-baa8-5657-8a2c-dc632dc2bac5-attr-2-key" class="er entityLabel"></text><rect height="23" width="35.222222646077476" y="70" x="0" class="er attributeBoxOdd"></rect><text transform="translate(5,81.5)" style="dominant-baseline: middle; font-size: 10.2px;" y="0" x="0" id="text-entity-Bild-e7498748-baa8-5657-8a2c-dc632dc2bac5-attr-3-type" class="er entityLabel">hash</text><rect height="23" width="38.055554707845054" y="70" x="35.222222646077476" class="er attributeBoxOdd"></rect><text transform="translate(40.222222646077476,81.5)" style="dominant-baseline: middle; font-size: 10.2px;" y="0" x="0" id="text-entity-Bild-e7498748-baa8-5657-8a2c-dc632dc2bac5-attr-3-name" class="er entityLabel">string</text><rect height="23" width="26.722222646077473" y="70" x="73.27777735392253" class="er attributeBoxOdd"></rect><text transform="translate(78.27777735392253,81.5)" style="dominant-baseline: middle; font-size: 10.2px;" y="0" x="0" id="text-entity-Bild-e7498748-baa8-5657-8a2c-dc632dc2bac5-attr-3-key" class="er entityLabel"></text></g><rect height="14" width="50" y="410.37615966796875" x="-63.78300094604492" class="er relationshipLabelBox"></rect><text style="text-anchor: middle; dominant-baseline: middle; font-size: 12px;" y="417.37615966796875" x="-38.78300094604492" id="rel4033" class="er relationshipLabel">gehört zu</text><rect height="14" width="50" y="180.93211364746094" x="342.12890625" class="er relationshipLabelBox"></rect><text style="text-anchor: middle; dominant-baseline: middle; font-size: 12px;" y="187.93211364746094" x="367.12890625" id="rel4034" class="er relationshipLabel">gehört zu</text><rect height="14" width="27.33333396911621" y="1116.9599609375" x="121.83484363555908" class="er relationshipLabelBox"></rect><text style="text-anchor: middle; dominant-baseline: middle; font-size: 12px;" y="1123.9599609375" x="135.5015106201172" id="rel4035" class="er relationshipLabel">Profil</text><rect height="14" width="38.66666793823242" y="1110.0712890625" x="159.4892063140869" class="er relationshipLabelBox"></rect><text style="text-anchor: middle; dominant-baseline: middle; font-size: 12px;" y="1117.0712890625" x="178.82254028320312" id="rel4036" class="er relationshipLabel">Banner</text><rect height="14" width="62.66666793823242" y="1061.68115234375" x="199.39080238342285" class="er relationshipLabelBox"></rect><text style="text-anchor: middle; dominant-baseline: middle; font-size: 12px;" y="1068.68115234375" x="230.72413635253906" id="rel4037" class="er relationshipLabel">Hintergrund</text><rect height="14" width="58" y="524.685791015625" x="78.89022064208984" class="er relationshipLabelBox"></rect><text style="text-anchor: middle; dominant-baseline: middle; font-size: 12px;" y="531.685791015625" x="107.89022064208984" id="rel4038" class="er relationshipLabel">erstellt von</text><rect height="14" width="50" y="487" x="372.61700439453125" class="er relationshipLabelBox"></rect><text style="text-anchor: middle; dominant-baseline: middle; font-size: 12px;" y="494" x="397.61700439453125" id="rel4039" class="er relationshipLabel">gehört zu</text><rect height="14" width="36" y="801.7182006835938" x="629.6170043945312" class="er relationshipLabelBox"></rect><text style="text-anchor: middle; dominant-baseline: middle; font-size: 12px;" y="808.7182006835938" x="647.6170043945312" id="rel4040" class="er relationshipLabel">enthält</text><rect height="14" width="34" y="733.8392333984375" x="221.4295196533203" class="er relationshipLabelBox"></rect><text style="text-anchor: middle; dominant-baseline: middle; font-size: 12px;" y="740.8392333984375" x="238.4295196533203" id="rel4041" class="er relationshipLabel">Admin</text><rect height="14" width="27.33333396911621" y="913.4599609375" x="333.95033740997314" class="er relationshipLabelBox"></rect><text style="text-anchor: middle; dominant-baseline: middle; font-size: 12px;" y="920.4599609375" x="347.61700439453125" id="rel4042" class="er relationshipLabel">Profil</text><rect height="14" width="38.66666793823242" y="921.5908203125" x="428.28284645080566" class="er relationshipLabelBox"></rect><text style="text-anchor: middle; dominant-baseline: middle; font-size: 12px;" y="928.5908203125" x="447.6161804199219" id="rel4043" class="er relationshipLabel">Banner</text><rect height="14" width="62.66666793823242" y="942.1973876953125" x="516.1617832183838" class="er relationshipLabelBox"></rect><text style="text-anchor: middle; dominant-baseline: middle; font-size: 12px;" y="949.1973876953125" x="547.4951171875" id="rel4044" class="er relationshipLabel">Hintergrund</text></g><g id="svg-pan-zoom-controls" transform="translate(1046 715) scale(0.75)" class="svg-pan-zoom-control"><g id="svg-pan-zoom-zoom-in" transform="translate(30.5 5) scale(0.015)" class="svg-pan-zoom-control"><rect x="0" y="0" width="1500" height="1400" class="svg-pan-zoom-control-background"></rect><path d="M1280 576v128q0 26 -19 45t-45 19h-320v320q0 26 -19 45t-45 19h-128q-26 0 -45 -19t-19 -45v-320h-320q-26 0 -45 -19t-19 -45v-128q0 -26 19 -45t45 -19h320v-320q0 -26 19 -45t45 -19h128q26 0 45 19t19 45v320h320q26 0 45 19t19 45zM1536 1120v-960 q0 -119 -84.5 -203.5t-203.5 -84.5h-960q-119 0 -203.5 84.5t-84.5 203.5v960q0 119 84.5 203.5t203.5 84.5h960q119 0 203.5 -84.5t84.5 -203.5z" class="svg-pan-zoom-control-element"></path></g><g id="svg-pan-zoom-reset-pan-zoom" transform="translate(5 35) scale(0.4)" class="svg-pan-zoom-control"><rect x="2" y="2" width="182" height="58" class="svg-pan-zoom-control-background"></rect><path d="M33.051,20.632c-0.742-0.406-1.854-0.609-3.338-0.609h-7.969v9.281h7.769c1.543,0,2.701-0.188,3.473-0.562c1.365-0.656,2.048-1.953,2.048-3.891C35.032,22.757,34.372,21.351,33.051,20.632z" class="svg-pan-zoom-control-element"></path><path d="M170.231,0.5H15.847C7.102,0.5,0.5,5.708,0.5,11.84v38.861C0.5,56.833,7.102,61.5,15.847,61.5h154.384c8.745,0,15.269-4.667,15.269-10.798V11.84C185.5,5.708,178.976,0.5,170.231,0.5z M42.837,48.569h-7.969c-0.219-0.766-0.375-1.383-0.469-1.852c-0.188-0.969-0.289-1.961-0.305-2.977l-0.047-3.211c-0.03-2.203-0.41-3.672-1.142-4.406c-0.732-0.734-2.103-1.102-4.113-1.102h-7.05v13.547h-7.055V14.022h16.524c2.361,0.047,4.178,0.344,5.45,0.891c1.272,0.547,2.351,1.352,3.234,2.414c0.731,0.875,1.31,1.844,1.737,2.906s0.64,2.273,0.64,3.633c0,1.641-0.414,3.254-1.242,4.84s-2.195,2.707-4.102,3.363c1.594,0.641,2.723,1.551,3.387,2.73s0.996,2.98,0.996,5.402v2.32c0,1.578,0.063,2.648,0.19,3.211c0.19,0.891,0.635,1.547,1.333,1.969V48.569z M75.579,48.569h-26.18V14.022h25.336v6.117H56.454v7.336h16.781v6H56.454v8.883h19.125V48.569z M104.497,46.331c-2.44,2.086-5.887,3.129-10.34,3.129c-4.548,0-8.125-1.027-10.731-3.082s-3.909-4.879-3.909-8.473h6.891c0.224,1.578,0.662,2.758,1.316,3.539c1.196,1.422,3.246,2.133,6.15,2.133c1.739,0,3.151-0.188,4.236-0.562c2.058-0.719,3.087-2.055,3.087-4.008c0-1.141-0.504-2.023-1.512-2.648c-1.008-0.609-2.607-1.148-4.796-1.617l-3.74-0.82c-3.676-0.812-6.201-1.695-7.576-2.648c-2.328-1.594-3.492-4.086-3.492-7.477c0-3.094,1.139-5.664,3.417-7.711s5.623-3.07,10.036-3.07c3.685,0,6.829,0.965,9.431,2.895c2.602,1.93,3.966,4.73,4.093,8.402h-6.938c-0.128-2.078-1.057-3.555-2.787-4.43c-1.154-0.578-2.587-0.867-4.301-0.867c-1.907,0-3.428,0.375-4.565,1.125c-1.138,0.75-1.706,1.797-1.706,3.141c0,1.234,0.561,2.156,1.682,2.766c0.721,0.406,2.25,0.883,4.589,1.43l6.063,1.43c2.657,0.625,4.648,1.461,5.975,2.508c2.059,1.625,3.089,3.977,3.089,7.055C108.157,41.624,106.937,44.245,104.497,46.331z M139.61,48.569h-26.18V14.022h25.336v6.117h-18.281v7.336h16.781v6h-16.781v8.883h19.125V48.569z M170.337,20.14h-10.336v28.43h-7.266V20.14h-10.383v-6.117h27.984V20.14z" class="svg-pan-zoom-control-element"></path></g><g id="svg-pan-zoom-zoom-out" transform="translate(30.5 70) scale(0.015)" class="svg-pan-zoom-control"><rect x="0" y="0" width="1500" height="1400" class="svg-pan-zoom-control-background"></rect><path d="M1280 576v128q0 26 -19 45t-45 19h-896q-26 0 -45 -19t-19 -45v-128q0 -26 19 -45t45 -19h896q26 0 45 19t19 45zM1536 1120v-960q0 -119 -84.5 -203.5t-203.5 -84.5h-960q-119 0 -203.5 84.5t-84.5 203.5v960q0 119 84.5 203.5t203.5 84.5h960q119 0 203.5 -84.5 t84.5 -203.5z" class="svg-pan-zoom-control-element"></path></g></g></svg>