<?xml version="1.0" encoding="UTF-8"?>
<?xml-stylesheet href="https://cdnjs.cloudflare.com/ajax/libs/font-awesome/6.6.0/css/all.min.css" type="text/css"?>
<svg aria-roledescription="er" role="graphics-document document" viewBox="0 0 427.691650390625 1072" style="max-width: 100%;" xmlns="http://www.w3.org/2000/svg" width="100%" id="graph-div" height="100%" xmlns:xlink="http://www.w3.org/1999/xlink"><style>#graph-div{font-family:"trebuchet ms",verdana,arial,sans-serif;font-size:16px;fill:#333;}#graph-div .error-icon{fill:#552222;}#graph-div .error-text{fill:#552222;stroke:#552222;}#graph-div .edge-thickness-normal{stroke-width:1px;}#graph-div .edge-thickness-thick{stroke-width:3.5px;}#graph-div .edge-pattern-solid{stroke-dasharray:0;}#graph-div .edge-thickness-invisible{stroke-width:0;fill:none;}#graph-div .edge-pattern-dashed{stroke-dasharray:3;}#graph-div .edge-pattern-dotted{stroke-dasharray:2;}#graph-div .marker{fill:#333333;stroke:#333333;}#graph-div .marker.cross{stroke:#333333;}#graph-div svg{font-family:"trebuchet ms",verdana,arial,sans-serif;font-size:16px;}#graph-div p{margin:0;}#graph-div .entityBox{fill:#ECECFF;stroke:#9370DB;}#graph-div .attributeBoxOdd{fill:#ffffff;stroke:#9370DB;}#graph-div .attributeBoxEven{fill:#f2f2f2;stroke:#9370DB;}#graph-div .relationshipLabelBox{fill:hsl(80, 100%, 96.2745098039%);opacity:0.7;background-color:hsl(80, 100%, 96.2745098039%);}#graph-div .relationshipLabelBox rect{opacity:0.5;}#graph-div .relationshipLine{stroke:#333333;}#graph-div .entityTitleText{text-anchor:middle;font-size:18px;fill:#333;}#graph-div #MD_PARENT_START{fill:#f5f5f5!important;stroke:#333333!important;stroke-width:1;}#graph-div #MD_PARENT_END{fill:#f5f5f5!important;stroke:#333333!important;stroke-width:1;}#graph-div :root{--mermaid-font-family:"trebuchet ms",verdana,arial,sans-serif;}</style><g></g><defs><marker orient="auto" markerHeight="240" markerWidth="190" refY="7" refX="0" id="MD_PARENT_START"><path d="M 18,7 L9,13 L1,7 L9,1 Z"></path></marker></defs><defs><marker orient="auto" markerHeight="28" markerWidth="20" refY="7" refX="19" id="MD_PARENT_END"><path d="M 18,7 L9,13 L1,7 L9,1 Z"></path></marker></defs><defs><marker orient="auto" markerHeight="18" markerWidth="18" refY="9" refX="0" id="ONLY_ONE_START"><path d="M9,0 L9,18 M15,0 L15,18" fill="none" stroke="gray"></path></marker></defs><defs><marker orient="auto" markerHeight="18" markerWidth="18" refY="9" refX="18" id="ONLY_ONE_END"><path d="M3,0 L3,18 M9,0 L9,18" fill="none" stroke="gray"></path></marker></defs><defs><marker orient="auto" markerHeight="18" markerWidth="30" refY="9" refX="0" id="ZERO_OR_ONE_START"><circle r="6" cy="9" cx="21" fill="white" stroke="gray"></circle><path d="M9,0 L9,18" fill="none" stroke="gray"></path></marker></defs><defs><marker orient="auto" markerHeight="18" markerWidth="30" refY="9" refX="30" id="ZERO_OR_ONE_END"><circle r="6" cy="9" cx="9" fill="white" stroke="gray"></circle><path d="M21,0 L21,18" fill="none" stroke="gray"></path></marker></defs><defs><marker orient="auto" markerHeight="36" markerWidth="45" refY="18" refX="18" id="ONE_OR_MORE_START"><path d="M0,18 Q 18,0 36,18 Q 18,36 0,18 M42,9 L42,27" fill="none" stroke="gray"></path></marker></defs><defs><marker orient="auto" markerHeight="36" markerWidth="45" refY="18" refX="27" id="ONE_OR_MORE_END"><path d="M3,9 L3,27 M9,18 Q27,0 45,18 Q27,36 9,18" fill="none" stroke="gray"></path></marker></defs><defs><marker orient="auto" markerHeight="36" markerWidth="57" refY="18" refX="18" id="ZERO_OR_MORE_START"><circle r="6" cy="18" cx="48" fill="white" stroke="gray"></circle><path d="M0,18 Q18,0 36,18 Q18,36 0,18" fill="none" stroke="gray"></path></marker></defs><defs><marker orient="auto" markerHeight="36" markerWidth="57" refY="18" refX="39" id="ZERO_OR_MORE_END"><circle r="6" cy="18" cx="9" fill="white" stroke="gray"></circle><path d="M21,18 Q39,0 57,18 Q39,36 21,18" fill="none" stroke="gray"></path></marker></defs><path marker-start="url(#ZERO_OR_MORE_START)" marker-end="url(#ONLY_ONE_END)" style="stroke: gray; fill: none;" d="M81.817,438L81.817,446.333C81.817,454.667,81.817,471.333,85.748,488C89.679,504.667,97.542,521.333,101.474,529.667L105.405,538" class="er relationshipLine"></path><path marker-start="url(#ONE_OR_MORE_START)" marker-end="url(#ZERO_OR_MORE_END)" style="stroke: gray; fill: none;" d="M162.725,781L162.725,789.333C162.725,797.667,162.725,814.333,168.07,831C173.416,847.667,184.107,864.333,189.452,872.667L194.798,881" class="er relationshipLine"></path><path marker-start="url(#ZERO_OR_MORE_START)" marker-end="url(#ONLY_ONE_END)" style="stroke: gray; fill: none;" d="M243.633,215L243.633,223.333C243.633,231.667,243.633,248.333,243.633,275.25C243.633,302.167,243.633,339.333,243.633,376.5C243.633,413.667,243.633,450.833,239.702,477.75C235.771,504.667,227.908,521.333,223.976,529.667L220.045,538" class="er relationshipLine"></path><path marker-start="url(#ONLY_ONE_START)" marker-end="url(#ZERO_OR_MORE_END)" style="stroke: gray; fill: none;" d="M175.633,179.484L159.997,193.736C144.361,207.989,113.089,236.495,97.453,259.081C81.817,281.667,81.817,298.333,81.817,306.667L81.817,315" class="er relationshipLine"></path><path marker-start="url(#ZERO_OR_MORE_START)" marker-end="url(#ZERO_OR_ONE_END)" style="stroke: gray; fill: none;" d="M311.633,190.756L323.119,203.13C334.606,215.504,357.578,240.252,369.064,271.209C380.55,302.167,380.55,339.333,380.55,376.5C380.55,413.667,380.55,450.833,380.55,498C380.55,545.167,380.55,602.333,380.55,659.5C380.55,716.667,380.55,773.833,371.639,811.64C362.728,849.447,344.906,867.895,335.994,877.118L327.083,886.342" class="er relationshipLine"></path><g transform="translate(88.89167022705078,538 )" id="entity-Benutzer-fde7d49d-48b7-58f6-b747-aa53049c1748"><rect height="243" width="147.66666412353516" y="0" x="0" class="er entityBox"></rect><text transform="translate(73.83333206176758,13.5)" style="dominant-baseline: middle; text-anchor: middle; font-size: 12px;" y="0" x="0" id="text-entity-Benutzer-fde7d49d-48b7-58f6-b747-aa53049c1748" class="er entityLabel">Benutzer</text><rect height="24" width="87.19999694824219" y="27" x="0" class="er attributeBoxOdd"></rect><text transform="translate(5,39)" style="dominant-baseline: middle; font-size: 10.2px;" y="0" x="0" id="text-entity-Benutzer-fde7d49d-48b7-58f6-b747-aa53049c1748-attr-1-type" class="er entityLabel">Id</text><rect height="24" width="37.983333587646484" y="27" x="87.19999694824219" class="er attributeBoxOdd"></rect><text transform="translate(92.19999694824219,39)" style="dominant-baseline: middle; font-size: 10.2px;" y="0" x="0" id="text-entity-Benutzer-fde7d49d-48b7-58f6-b747-aa53049c1748-attr-1-name" class="er entityLabel">int</text><rect height="24" width="22.483333587646484" y="27" x="125.18333053588867" class="er attributeBoxOdd"></rect><text transform="translate(130.18333053588867,39)" style="dominant-baseline: middle; font-size: 10.2px;" y="0" x="0" id="text-entity-Benutzer-fde7d49d-48b7-58f6-b747-aa53049c1748-attr-1-key" class="er entityLabel">PK</text><rect height="24" width="87.19999694824219" y="51" x="0" class="er attributeBoxEven"></rect><text transform="translate(5,63)" style="dominant-baseline: middle; font-size: 10.2px;" y="0" x="0" id="text-entity-Benutzer-fde7d49d-48b7-58f6-b747-aa53049c1748-attr-2-type" class="er entityLabel">Benutzername</text><rect height="24" width="37.983333587646484" y="51" x="87.19999694824219" class="er attributeBoxEven"></rect><text transform="translate(92.19999694824219,63)" style="dominant-baseline: middle; font-size: 10.2px;" y="0" x="0" id="text-entity-Benutzer-fde7d49d-48b7-58f6-b747-aa53049c1748-attr-2-name" class="er entityLabel">string</text><rect height="24" width="22.483333587646484" y="51" x="125.18333053588867" class="er attributeBoxEven"></rect><text transform="translate(130.18333053588867,63)" style="dominant-baseline: middle; font-size: 10.2px;" y="0" x="0" id="text-entity-Benutzer-fde7d49d-48b7-58f6-b747-aa53049c1748-attr-2-key" class="er entityLabel"></text><rect height="24" width="87.19999694824219" y="75" x="0" class="er attributeBoxOdd"></rect><text transform="translate(5,87)" style="dominant-baseline: middle; font-size: 10.2px;" y="0" x="0" id="text-entity-Benutzer-fde7d49d-48b7-58f6-b747-aa53049c1748-attr-3-type" class="er entityLabel">E-Mail</text><rect height="24" width="37.983333587646484" y="75" x="87.19999694824219" class="er attributeBoxOdd"></rect><text transform="translate(92.19999694824219,87)" style="dominant-baseline: middle; font-size: 10.2px;" y="0" x="0" id="text-entity-Benutzer-fde7d49d-48b7-58f6-b747-aa53049c1748-attr-3-name" class="er entityLabel">string</text><rect height="24" width="22.483333587646484" y="75" x="125.18333053588867" class="er attributeBoxOdd"></rect><text transform="translate(130.18333053588867,87)" style="dominant-baseline: middle; font-size: 10.2px;" y="0" x="0" id="text-entity-Benutzer-fde7d49d-48b7-58f6-b747-aa53049c1748-attr-3-key" class="er entityLabel"></text><rect height="24" width="87.19999694824219" y="99" x="0" class="er attributeBoxEven"></rect><text transform="translate(5,111)" style="dominant-baseline: middle; font-size: 10.2px;" y="0" x="0" id="text-entity-Benutzer-fde7d49d-48b7-58f6-b747-aa53049c1748-attr-4-type" class="er entityLabel">Passwort</text><rect height="24" width="37.983333587646484" y="99" x="87.19999694824219" class="er attributeBoxEven"></rect><text transform="translate(92.19999694824219,111)" style="dominant-baseline: middle; font-size: 10.2px;" y="0" x="0" id="text-entity-Benutzer-fde7d49d-48b7-58f6-b747-aa53049c1748-attr-4-name" class="er entityLabel">string</text><rect height="24" width="22.483333587646484" y="99" x="125.18333053588867" class="er attributeBoxEven"></rect><text transform="translate(130.18333053588867,111)" style="dominant-baseline: middle; font-size: 10.2px;" y="0" x="0" id="text-entity-Benutzer-fde7d49d-48b7-58f6-b747-aa53049c1748-attr-4-key" class="er entityLabel"></text><rect height="24" width="87.19999694824219" y="123" x="0" class="er attributeBoxOdd"></rect><text transform="translate(5,135)" style="dominant-baseline: middle; font-size: 10.2px;" y="0" x="0" id="text-entity-Benutzer-fde7d49d-48b7-58f6-b747-aa53049c1748-attr-5-type" class="er entityLabel">Xp</text><rect height="24" width="37.983333587646484" y="123" x="87.19999694824219" class="er attributeBoxOdd"></rect><text transform="translate(92.19999694824219,135)" style="dominant-baseline: middle; font-size: 10.2px;" y="0" x="0" id="text-entity-Benutzer-fde7d49d-48b7-58f6-b747-aa53049c1748-attr-5-name" class="er entityLabel">int</text><rect height="24" width="22.483333587646484" y="123" x="125.18333053588867" class="er attributeBoxOdd"></rect><text transform="translate(130.18333053588867,135)" style="dominant-baseline: middle; font-size: 10.2px;" y="0" x="0" id="text-entity-Benutzer-fde7d49d-48b7-58f6-b747-aa53049c1748-attr-5-key" class="er entityLabel"></text><rect height="24" width="87.19999694824219" y="147" x="0" class="er attributeBoxEven"></rect><text transform="translate(5,159)" style="dominant-baseline: middle; font-size: 10.2px;" y="0" x="0" id="text-entity-Benutzer-fde7d49d-48b7-58f6-b747-aa53049c1748-attr-6-type" class="er entityLabel">Profilbild</text><rect height="24" width="37.983333587646484" y="147" x="87.19999694824219" class="er attributeBoxEven"></rect><text transform="translate(92.19999694824219,159)" style="dominant-baseline: middle; font-size: 10.2px;" y="0" x="0" id="text-entity-Benutzer-fde7d49d-48b7-58f6-b747-aa53049c1748-attr-6-name" class="er entityLabel">string</text><rect height="24" width="22.483333587646484" y="147" x="125.18333053588867" class="er attributeBoxEven"></rect><text transform="translate(130.18333053588867,159)" style="dominant-baseline: middle; font-size: 10.2px;" y="0" x="0" id="text-entity-Benutzer-fde7d49d-48b7-58f6-b747-aa53049c1748-attr-6-key" class="er entityLabel"></text><rect height="24" width="87.19999694824219" y="171" x="0" class="er attributeBoxOdd"></rect><text transform="translate(5,183)" style="dominant-baseline: middle; font-size: 10.2px;" y="0" x="0" id="text-entity-Benutzer-fde7d49d-48b7-58f6-b747-aa53049c1748-attr-7-type" class="er entityLabel">Bannerbild</text><rect height="24" width="37.983333587646484" y="171" x="87.19999694824219" class="er attributeBoxOdd"></rect><text transform="translate(92.19999694824219,183)" style="dominant-baseline: middle; font-size: 10.2px;" y="0" x="0" id="text-entity-Benutzer-fde7d49d-48b7-58f6-b747-aa53049c1748-attr-7-name" class="er entityLabel">string</text><rect height="24" width="22.483333587646484" y="171" x="125.18333053588867" class="er attributeBoxOdd"></rect><text transform="translate(130.18333053588867,183)" style="dominant-baseline: middle; font-size: 10.2px;" y="0" x="0" id="text-entity-Benutzer-fde7d49d-48b7-58f6-b747-aa53049c1748-attr-7-key" class="er entityLabel"></text><rect height="24" width="87.19999694824219" y="195" x="0" class="er attributeBoxEven"></rect><text transform="translate(5,207)" style="dominant-baseline: middle; font-size: 10.2px;" y="0" x="0" id="text-entity-Benutzer-fde7d49d-48b7-58f6-b747-aa53049c1748-attr-8-type" class="er entityLabel">Hintergrundbild</text><rect height="24" width="37.983333587646484" y="195" x="87.19999694824219" class="er attributeBoxEven"></rect><text transform="translate(92.19999694824219,207)" style="dominant-baseline: middle; font-size: 10.2px;" y="0" x="0" id="text-entity-Benutzer-fde7d49d-48b7-58f6-b747-aa53049c1748-attr-8-name" class="er entityLabel">string</text><rect height="24" width="22.483333587646484" y="195" x="125.18333053588867" class="er attributeBoxEven"></rect><text transform="translate(130.18333053588867,207)" style="dominant-baseline: middle; font-size: 10.2px;" y="0" x="0" id="text-entity-Benutzer-fde7d49d-48b7-58f6-b747-aa53049c1748-attr-8-key" class="er entityLabel"></text><rect height="24" width="87.19999694824219" y="219" x="0" class="er attributeBoxOdd"></rect><text transform="translate(5,231)" style="dominant-baseline: middle; font-size: 10.2px;" y="0" x="0" id="text-entity-Benutzer-fde7d49d-48b7-58f6-b747-aa53049c1748-attr-9-type" class="er entityLabel">Akzentfarbe</text><rect height="24" width="37.983333587646484" y="219" x="87.19999694824219" class="er attributeBoxOdd"></rect><text transform="translate(92.19999694824219,231)" style="dominant-baseline: middle; font-size: 10.2px;" y="0" x="0" id="text-entity-Benutzer-fde7d49d-48b7-58f6-b747-aa53049c1748-attr-9-name" class="er entityLabel">string</text><rect height="24" width="22.483333587646484" y="219" x="125.18333053588867" class="er attributeBoxOdd"></rect><text transform="translate(130.18333053588867,231)" style="dominant-baseline: middle; font-size: 10.2px;" y="0" x="0" id="text-entity-Benutzer-fde7d49d-48b7-58f6-b747-aa53049c1748-attr-9-key" class="er entityLabel"></text></g><g transform="translate(20,315 )" id="entity-Komentar-4d33c821-bb3d-5571-afce-4a844702155b"><rect height="123" width="123.63333511352539" y="0" x="0" class="er entityBox"></rect><text transform="translate(61.816667556762695,13.5)" style="dominant-baseline: middle; text-anchor: middle; font-size: 12px;" y="0" x="0" id="text-entity-Komentar-4d33c821-bb3d-5571-afce-4a844702155b" class="er entityLabel">Komentar</text><rect height="24" width="63.16666793823242" y="27" x="0" class="er attributeBoxOdd"></rect><text transform="translate(5,39)" style="dominant-baseline: middle; font-size: 10.2px;" y="0" x="0" id="text-entity-Komentar-4d33c821-bb3d-5571-afce-4a844702155b-attr-1-type" class="er entityLabel">Id</text><rect height="24" width="37.983333587646484" y="27" x="63.16666793823242" class="er attributeBoxOdd"></rect><text transform="translate(68.16666793823242,39)" style="dominant-baseline: middle; font-size: 10.2px;" y="0" x="0" id="text-entity-Komentar-4d33c821-bb3d-5571-afce-4a844702155b-attr-1-name" class="er entityLabel">int</text><rect height="24" width="22.483333587646484" y="27" x="101.1500015258789" class="er attributeBoxOdd"></rect><text transform="translate(106.1500015258789,39)" style="dominant-baseline: middle; font-size: 10.2px;" y="0" x="0" id="text-entity-Komentar-4d33c821-bb3d-5571-afce-4a844702155b-attr-1-key" class="er entityLabel">PK</text><rect height="24" width="63.16666793823242" y="51" x="0" class="er attributeBoxEven"></rect><text transform="translate(5,63)" style="dominant-baseline: middle; font-size: 10.2px;" y="0" x="0" id="text-entity-Komentar-4d33c821-bb3d-5571-afce-4a844702155b-attr-2-type" class="er entityLabel">Text</text><rect height="24" width="37.983333587646484" y="51" x="63.16666793823242" class="er attributeBoxEven"></rect><text transform="translate(68.16666793823242,63)" style="dominant-baseline: middle; font-size: 10.2px;" y="0" x="0" id="text-entity-Komentar-4d33c821-bb3d-5571-afce-4a844702155b-attr-2-name" class="er entityLabel">string</text><rect height="24" width="22.483333587646484" y="51" x="101.1500015258789" class="er attributeBoxEven"></rect><text transform="translate(106.1500015258789,63)" style="dominant-baseline: middle; font-size: 10.2px;" y="0" x="0" id="text-entity-Komentar-4d33c821-bb3d-5571-afce-4a844702155b-attr-2-key" class="er entityLabel"></text><rect height="24" width="63.16666793823242" y="75" x="0" class="er attributeBoxOdd"></rect><text transform="translate(5,87)" style="dominant-baseline: middle; font-size: 10.2px;" y="0" x="0" id="text-entity-Komentar-4d33c821-bb3d-5571-afce-4a844702155b-attr-3-type" class="er entityLabel">BenutzerId</text><rect height="24" width="37.983333587646484" y="75" x="63.16666793823242" class="er attributeBoxOdd"></rect><text transform="translate(68.16666793823242,87)" style="dominant-baseline: middle; font-size: 10.2px;" y="0" x="0" id="text-entity-Komentar-4d33c821-bb3d-5571-afce-4a844702155b-attr-3-name" class="er entityLabel">int</text><rect height="24" width="22.483333587646484" y="75" x="101.1500015258789" class="er attributeBoxOdd"></rect><text transform="translate(106.1500015258789,87)" style="dominant-baseline: middle; font-size: 10.2px;" y="0" x="0" id="text-entity-Komentar-4d33c821-bb3d-5571-afce-4a844702155b-attr-3-key" class="er entityLabel">FK</text><rect height="24" width="63.16666793823242" y="99" x="0" class="er attributeBoxEven"></rect><text transform="translate(5,111)" style="dominant-baseline: middle; font-size: 10.2px;" y="0" x="0" id="text-entity-Komentar-4d33c821-bb3d-5571-afce-4a844702155b-attr-4-type" class="er entityLabel">PostId</text><rect height="24" width="37.983333587646484" y="99" x="63.16666793823242" class="er attributeBoxEven"></rect><text transform="translate(68.16666793823242,111)" style="dominant-baseline: middle; font-size: 10.2px;" y="0" x="0" id="text-entity-Komentar-4d33c821-bb3d-5571-afce-4a844702155b-attr-4-name" class="er entityLabel">int</text><rect height="24" width="22.483333587646484" y="99" x="101.1500015258789" class="er attributeBoxEven"></rect><text transform="translate(106.1500015258789,111)" style="dominant-baseline: middle; font-size: 10.2px;" y="0" x="0" id="text-entity-Komentar-4d33c821-bb3d-5571-afce-4a844702155b-attr-4-key" class="er entityLabel">FK</text></g><g transform="translate(172.1999969482422,881 )" id="entity-Community-bd8f9868-7f31-5baf-872b-a65ae610feeb"><rect height="171" width="154.88333129882812" y="0" x="0" class="er entityBox"></rect><text transform="translate(77.44166564941406,13.5)" style="dominant-baseline: middle; text-anchor: middle; font-size: 12px;" y="0" x="0" id="text-entity-Community-bd8f9868-7f31-5baf-872b-a65ae610feeb" class="er entityLabel">Community</text><rect height="24" width="94.41666412353516" y="27" x="0" class="er attributeBoxOdd"></rect><text transform="translate(5,39)" style="dominant-baseline: middle; font-size: 10.2px;" y="0" x="0" id="text-entity-Community-bd8f9868-7f31-5baf-872b-a65ae610feeb-attr-1-type" class="er entityLabel">Id</text><rect height="24" width="37.983333587646484" y="27" x="94.41666412353516" class="er attributeBoxOdd"></rect><text transform="translate(99.41666412353516,39)" style="dominant-baseline: middle; font-size: 10.2px;" y="0" x="0" id="text-entity-Community-bd8f9868-7f31-5baf-872b-a65ae610feeb-attr-1-name" class="er entityLabel">int</text><rect height="24" width="22.483333587646484" y="27" x="132.39999771118164" class="er attributeBoxOdd"></rect><text transform="translate(137.39999771118164,39)" style="dominant-baseline: middle; font-size: 10.2px;" y="0" x="0" id="text-entity-Community-bd8f9868-7f31-5baf-872b-a65ae610feeb-attr-1-key" class="er entityLabel">PK</text><rect height="24" width="94.41666412353516" y="51" x="0" class="er attributeBoxEven"></rect><text transform="translate(5,63)" style="dominant-baseline: middle; font-size: 10.2px;" y="0" x="0" id="text-entity-Community-bd8f9868-7f31-5baf-872b-a65ae610feeb-attr-2-type" class="er entityLabel">Namen</text><rect height="24" width="37.983333587646484" y="51" x="94.41666412353516" class="er attributeBoxEven"></rect><text transform="translate(99.41666412353516,63)" style="dominant-baseline: middle; font-size: 10.2px;" y="0" x="0" id="text-entity-Community-bd8f9868-7f31-5baf-872b-a65ae610feeb-attr-2-name" class="er entityLabel">string</text><rect height="24" width="22.483333587646484" y="51" x="132.39999771118164" class="er attributeBoxEven"></rect><text transform="translate(137.39999771118164,63)" style="dominant-baseline: middle; font-size: 10.2px;" y="0" x="0" id="text-entity-Community-bd8f9868-7f31-5baf-872b-a65ae610feeb-attr-2-key" class="er entityLabel"></text><rect height="24" width="94.41666412353516" y="75" x="0" class="er attributeBoxOdd"></rect><text transform="translate(5,87)" style="dominant-baseline: middle; font-size: 10.2px;" y="0" x="0" id="text-entity-Community-bd8f9868-7f31-5baf-872b-a65ae610feeb-attr-3-type" class="er entityLabel">Profilbild</text><rect height="24" width="37.983333587646484" y="75" x="94.41666412353516" class="er attributeBoxOdd"></rect><text transform="translate(99.41666412353516,87)" style="dominant-baseline: middle; font-size: 10.2px;" y="0" x="0" id="text-entity-Community-bd8f9868-7f31-5baf-872b-a65ae610feeb-attr-3-name" class="er entityLabel">string</text><rect height="24" width="22.483333587646484" y="75" x="132.39999771118164" class="er attributeBoxOdd"></rect><text transform="translate(137.39999771118164,87)" style="dominant-baseline: middle; font-size: 10.2px;" y="0" x="0" id="text-entity-Community-bd8f9868-7f31-5baf-872b-a65ae610feeb-attr-3-key" class="er entityLabel"></text><rect height="24" width="94.41666412353516" y="99" x="0" class="er attributeBoxEven"></rect><text transform="translate(5,111)" style="dominant-baseline: middle; font-size: 10.2px;" y="0" x="0" id="text-entity-Community-bd8f9868-7f31-5baf-872b-a65ae610feeb-attr-4-type" class="er entityLabel">Hintergrundbild</text><rect height="24" width="37.983333587646484" y="99" x="94.41666412353516" class="er attributeBoxEven"></rect><text transform="translate(99.41666412353516,111)" style="dominant-baseline: middle; font-size: 10.2px;" y="0" x="0" id="text-entity-Community-bd8f9868-7f31-5baf-872b-a65ae610feeb-attr-4-name" class="er entityLabel">string</text><rect height="24" width="22.483333587646484" y="99" x="132.39999771118164" class="er attributeBoxEven"></rect><text transform="translate(137.39999771118164,111)" style="dominant-baseline: middle; font-size: 10.2px;" y="0" x="0" id="text-entity-Community-bd8f9868-7f31-5baf-872b-a65ae610feeb-attr-4-key" class="er entityLabel"></text><rect height="24" width="94.41666412353516" y="123" x="0" class="er attributeBoxOdd"></rect><text transform="translate(5,135)" style="dominant-baseline: middle; font-size: 10.2px;" y="0" x="0" id="text-entity-Community-bd8f9868-7f31-5baf-872b-a65ae610feeb-attr-5-type" class="er entityLabel">Bannerbild</text><rect height="24" width="37.983333587646484" y="123" x="94.41666412353516" class="er attributeBoxOdd"></rect><text transform="translate(99.41666412353516,135)" style="dominant-baseline: middle; font-size: 10.2px;" y="0" x="0" id="text-entity-Community-bd8f9868-7f31-5baf-872b-a65ae610feeb-attr-5-name" class="er entityLabel">string</text><rect height="24" width="22.483333587646484" y="123" x="132.39999771118164" class="er attributeBoxOdd"></rect><text transform="translate(137.39999771118164,135)" style="dominant-baseline: middle; font-size: 10.2px;" y="0" x="0" id="text-entity-Community-bd8f9868-7f31-5baf-872b-a65ae610feeb-attr-5-key" class="er entityLabel"></text><rect height="24" width="94.41666412353516" y="147" x="0" class="er attributeBoxEven"></rect><text transform="translate(5,159)" style="dominant-baseline: middle; font-size: 10.2px;" y="0" x="0" id="text-entity-Community-bd8f9868-7f31-5baf-872b-a65ae610feeb-attr-6-type" class="er entityLabel">AdminBenutzerId</text><rect height="24" width="37.983333587646484" y="147" x="94.41666412353516" class="er attributeBoxEven"></rect><text transform="translate(99.41666412353516,159)" style="dominant-baseline: middle; font-size: 10.2px;" y="0" x="0" id="text-entity-Community-bd8f9868-7f31-5baf-872b-a65ae610feeb-attr-6-name" class="er entityLabel">int</text><rect height="24" width="22.483333587646484" y="147" x="132.39999771118164" class="er attributeBoxEven"></rect><text transform="translate(137.39999771118164,159)" style="dominant-baseline: middle; font-size: 10.2px;" y="0" x="0" id="text-entity-Community-bd8f9868-7f31-5baf-872b-a65ae610feeb-attr-6-key" class="er entityLabel">FK</text></g><g transform="translate(175.63333129882812,20 )" id="entity-Post-532e386b-856e-5baf-9389-a9bdd31661fe"><rect height="195" width="136" y="0" x="0" class="er entityBox"></rect><text transform="translate(68,13.5)" style="dominant-baseline: middle; text-anchor: middle; font-size: 12px;" y="0" x="0" id="text-entity-Post-532e386b-856e-5baf-9389-a9bdd31661fe" class="er entityLabel">Post</text><rect height="24" width="75.53333282470703" y="27" x="0" class="er attributeBoxOdd"></rect><text transform="translate(5,39)" style="dominant-baseline: middle; font-size: 10.2px;" y="0" x="0" id="text-entity-Post-532e386b-856e-5baf-9389-a9bdd31661fe-attr-1-type" class="er entityLabel">Id</text><rect height="24" width="37.983333587646484" y="27" x="75.53333282470703" class="er attributeBoxOdd"></rect><text transform="translate(80.53333282470703,39)" style="dominant-baseline: middle; font-size: 10.2px;" y="0" x="0" id="text-entity-Post-532e386b-856e-5baf-9389-a9bdd31661fe-attr-1-name" class="er entityLabel">int</text><rect height="24" width="22.483333587646484" y="27" x="113.51666641235352" class="er attributeBoxOdd"></rect><text transform="translate(118.51666641235352,39)" style="dominant-baseline: middle; font-size: 10.2px;" y="0" x="0" id="text-entity-Post-532e386b-856e-5baf-9389-a9bdd31661fe-attr-1-key" class="er entityLabel">PK</text><rect height="24" width="75.53333282470703" y="51" x="0" class="er attributeBoxEven"></rect><text transform="translate(5,63)" style="dominant-baseline: middle; font-size: 10.2px;" y="0" x="0" id="text-entity-Post-532e386b-856e-5baf-9389-a9bdd31661fe-attr-2-type" class="er entityLabel">Tietel</text><rect height="24" width="37.983333587646484" y="51" x="75.53333282470703" class="er attributeBoxEven"></rect><text transform="translate(80.53333282470703,63)" style="dominant-baseline: middle; font-size: 10.2px;" y="0" x="0" id="text-entity-Post-532e386b-856e-5baf-9389-a9bdd31661fe-attr-2-name" class="er entityLabel">string</text><rect height="24" width="22.483333587646484" y="51" x="113.51666641235352" class="er attributeBoxEven"></rect><text transform="translate(118.51666641235352,63)" style="dominant-baseline: middle; font-size: 10.2px;" y="0" x="0" id="text-entity-Post-532e386b-856e-5baf-9389-a9bdd31661fe-attr-2-key" class="er entityLabel"></text><rect height="24" width="75.53333282470703" y="75" x="0" class="er attributeBoxOdd"></rect><text transform="translate(5,87)" style="dominant-baseline: middle; font-size: 10.2px;" y="0" x="0" id="text-entity-Post-532e386b-856e-5baf-9389-a9bdd31661fe-attr-3-type" class="er entityLabel">Text</text><rect height="24" width="37.983333587646484" y="75" x="75.53333282470703" class="er attributeBoxOdd"></rect><text transform="translate(80.53333282470703,87)" style="dominant-baseline: middle; font-size: 10.2px;" y="0" x="0" id="text-entity-Post-532e386b-856e-5baf-9389-a9bdd31661fe-attr-3-name" class="er entityLabel">string</text><rect height="24" width="22.483333587646484" y="75" x="113.51666641235352" class="er attributeBoxOdd"></rect><text transform="translate(118.51666641235352,87)" style="dominant-baseline: middle; font-size: 10.2px;" y="0" x="0" id="text-entity-Post-532e386b-856e-5baf-9389-a9bdd31661fe-attr-3-key" class="er entityLabel"></text><rect height="24" width="75.53333282470703" y="99" x="0" class="er attributeBoxEven"></rect><text transform="translate(5,111)" style="dominant-baseline: middle; font-size: 10.2px;" y="0" x="0" id="text-entity-Post-532e386b-856e-5baf-9389-a9bdd31661fe-attr-4-type" class="er entityLabel">Bild</text><rect height="24" width="37.983333587646484" y="99" x="75.53333282470703" class="er attributeBoxEven"></rect><text transform="translate(80.53333282470703,111)" style="dominant-baseline: middle; font-size: 10.2px;" y="0" x="0" id="text-entity-Post-532e386b-856e-5baf-9389-a9bdd31661fe-attr-4-name" class="er entityLabel">int</text><rect height="24" width="22.483333587646484" y="99" x="113.51666641235352" class="er attributeBoxEven"></rect><text transform="translate(118.51666641235352,111)" style="dominant-baseline: middle; font-size: 10.2px;" y="0" x="0" id="text-entity-Post-532e386b-856e-5baf-9389-a9bdd31661fe-attr-4-key" class="er entityLabel"></text><rect height="24" width="75.53333282470703" y="123" x="0" class="er attributeBoxOdd"></rect><text transform="translate(5,135)" style="dominant-baseline: middle; font-size: 10.2px;" y="0" x="0" id="text-entity-Post-532e386b-856e-5baf-9389-a9bdd31661fe-attr-5-type" class="er entityLabel">Likes</text><rect height="24" width="37.983333587646484" y="123" x="75.53333282470703" class="er attributeBoxOdd"></rect><text transform="translate(80.53333282470703,135)" style="dominant-baseline: middle; font-size: 10.2px;" y="0" x="0" id="text-entity-Post-532e386b-856e-5baf-9389-a9bdd31661fe-attr-5-name" class="er entityLabel">int</text><rect height="24" width="22.483333587646484" y="123" x="113.51666641235352" class="er attributeBoxOdd"></rect><text transform="translate(118.51666641235352,135)" style="dominant-baseline: middle; font-size: 10.2px;" y="0" x="0" id="text-entity-Post-532e386b-856e-5baf-9389-a9bdd31661fe-attr-5-key" class="er entityLabel"></text><rect height="24" width="75.53333282470703" y="147" x="0" class="er attributeBoxEven"></rect><text transform="translate(5,159)" style="dominant-baseline: middle; font-size: 10.2px;" y="0" x="0" id="text-entity-Post-532e386b-856e-5baf-9389-a9bdd31661fe-attr-6-type" class="er entityLabel">BenutzerId</text><rect height="24" width="37.983333587646484" y="147" x="75.53333282470703" class="er attributeBoxEven"></rect><text transform="translate(80.53333282470703,159)" style="dominant-baseline: middle; font-size: 10.2px;" y="0" x="0" id="text-entity-Post-532e386b-856e-5baf-9389-a9bdd31661fe-attr-6-name" class="er entityLabel">int</text><rect height="24" width="22.483333587646484" y="147" x="113.51666641235352" class="er attributeBoxEven"></rect><text transform="translate(118.51666641235352,159)" style="dominant-baseline: middle; font-size: 10.2px;" y="0" x="0" id="text-entity-Post-532e386b-856e-5baf-9389-a9bdd31661fe-attr-6-key" class="er entityLabel">FK</text><rect height="24" width="75.53333282470703" y="171" x="0" class="er attributeBoxOdd"></rect><text transform="translate(5,183)" style="dominant-baseline: middle; font-size: 10.2px;" y="0" x="0" id="text-entity-Post-532e386b-856e-5baf-9389-a9bdd31661fe-attr-7-type" class="er entityLabel">CommunityId</text><rect height="24" width="37.983333587646484" y="171" x="75.53333282470703" class="er attributeBoxOdd"></rect><text transform="translate(80.53333282470703,183)" style="dominant-baseline: middle; font-size: 10.2px;" y="0" x="0" id="text-entity-Post-532e386b-856e-5baf-9389-a9bdd31661fe-attr-7-name" class="er entityLabel">int</text><rect height="24" width="22.483333587646484" y="171" x="113.51666641235352" class="er attributeBoxOdd"></rect><text transform="translate(118.51666641235352,183)" style="dominant-baseline: middle; font-size: 10.2px;" y="0" x="0" id="text-entity-Post-532e386b-856e-5baf-9389-a9bdd31661fe-attr-7-key" class="er entityLabel">FK</text></g><rect height="17" width="18.483333587646484" y="481.223876953125" x="76.9267749786377" class="er relationshipLabelBox"></rect><text style="text-anchor: middle; dominant-baseline: middle; font-size: 12px;" y="489.723876953125" x="86.16844177246094" id="rel3505" class="er relationshipLabel">hat</text><rect height="17" width="46.38333511352539" y="825.5039672851562" x="145.89819145202637" class="er relationshipLabelBox"></rect><text style="text-anchor: middle; dominant-baseline: middle; font-size: 12px;" y="834.0039672851562" x="169.08985900878906" id="rel3506" class="er relationshipLabel">mitglied</text><rect height="17" width="18.483333587646484" y="369.79327392578125" x="234.39126777648926" class="er relationshipLabelBox"></rect><text style="text-anchor: middle; dominant-baseline: middle; font-size: 12px;" y="378.29327392578125" x="243.6329345703125" id="rel3507" class="er relationshipLabel">hat</text><rect height="17" width="54.28333282470703" y="230.2234344482422" x="86.8305778503418" class="er relationshipLabelBox"></rect><text style="text-anchor: middle; dominant-baseline: middle; font-size: 12px;" y="238.7234344482422" x="113.97224426269531" id="rel3508" class="er relationshipLabel">gehört zu</text><rect height="17" width="54.28333282470703" y="527.02197265625" x="353.40832138061523" class="er relationshipLabelBox"></rect><text style="text-anchor: middle; dominant-baseline: middle; font-size: 12px;" y="535.52197265625" x="380.54998779296875" id="rel3509" class="er relationshipLabel">gehört zu</text></svg>