<?xml version="1.0" encoding="UTF-8"?>
<?xml-stylesheet href="https://cdnjs.cloudflare.com/ajax/libs/font-awesome/6.6.0/css/all.min.css" type="text/css"?>
<svg aria-roledescription="er" role="graphics-document document" viewBox="0 0 410.95465087890625 1072" style="max-width: 100%;" xmlns="http://www.w3.org/2000/svg" width="100%" id="graph-div" height="100%" xmlns:xlink="http://www.w3.org/1999/xlink"><style>#graph-div{font-family:"trebuchet ms",verdana,arial,sans-serif;font-size:16px;fill:#333;}#graph-div .error-icon{fill:#552222;}#graph-div .error-text{fill:#552222;stroke:#552222;}#graph-div .edge-thickness-normal{stroke-width:1px;}#graph-div .edge-thickness-thick{stroke-width:3.5px;}#graph-div .edge-pattern-solid{stroke-dasharray:0;}#graph-div .edge-thickness-invisible{stroke-width:0;fill:none;}#graph-div .edge-pattern-dashed{stroke-dasharray:3;}#graph-div .edge-pattern-dotted{stroke-dasharray:2;}#graph-div .marker{fill:#333333;stroke:#333333;}#graph-div .marker.cross{stroke:#333333;}#graph-div svg{font-family:"trebuchet ms",verdana,arial,sans-serif;font-size:16px;}#graph-div p{margin:0;}#graph-div .entityBox{fill:#ECECFF;stroke:#9370DB;}#graph-div .attributeBoxOdd{fill:#ffffff;stroke:#9370DB;}#graph-div .attributeBoxEven{fill:#f2f2f2;stroke:#9370DB;}#graph-div .relationshipLabelBox{fill:hsl(80, 100%, 96.2745098039%);opacity:0.7;background-color:hsl(80, 100%, 96.2745098039%);}#graph-div .relationshipLabelBox rect{opacity:0.5;}#graph-div .relationshipLine{stroke:#333333;}#graph-div .entityTitleText{text-anchor:middle;font-size:18px;fill:#333;}#graph-div #MD_PARENT_START{fill:#f5f5f5!important;stroke:#333333!important;stroke-width:1;}#graph-div #MD_PARENT_END{fill:#f5f5f5!important;stroke:#333333!important;stroke-width:1;}#graph-div :root{--mermaid-font-family:"trebuchet ms",verdana,arial,sans-serif;}</style><g></g><defs><marker orient="auto" markerHeight="240" markerWidth="190" refY="7" refX="0" id="MD_PARENT_START"><path d="M 18,7 L9,13 L1,7 L9,1 Z"></path></marker></defs><defs><marker orient="auto" markerHeight="28" markerWidth="20" refY="7" refX="19" id="MD_PARENT_END"><path d="M 18,7 L9,13 L1,7 L9,1 Z"></path></marker></defs><defs><marker orient="auto" markerHeight="18" markerWidth="18" refY="9" refX="0" id="ONLY_ONE_START"><path d="M9,0 L9,18 M15,0 L15,18" fill="none" stroke="gray"></path></marker></defs><defs><marker orient="auto" markerHeight="18" markerWidth="18" refY="9" refX="18" id="ONLY_ONE_END"><path d="M3,0 L3,18 M9,0 L9,18" fill="none" stroke="gray"></path></marker></defs><defs><marker orient="auto" markerHeight="18" markerWidth="30" refY="9" refX="0" id="ZERO_OR_ONE_START"><circle r="6" cy="9" cx="21" fill="white" stroke="gray"></circle><path d="M9,0 L9,18" fill="none" stroke="gray"></path></marker></defs><defs><marker orient="auto" markerHeight="18" markerWidth="30" refY="9" refX="30" id="ZERO_OR_ONE_END"><circle r="6" cy="9" cx="9" fill="white" stroke="gray"></circle><path d="M21,0 L21,18" fill="none" stroke="gray"></path></marker></defs><defs><marker orient="auto" markerHeight="36" markerWidth="45" refY="18" refX="18" id="ONE_OR_MORE_START"><path d="M0,18 Q 18,0 36,18 Q 18,36 0,18 M42,9 L42,27" fill="none" stroke="gray"></path></marker></defs><defs><marker orient="auto" markerHeight="36" markerWidth="45" refY="18" refX="27" id="ONE_OR_MORE_END"><path d="M3,9 L3,27 M9,18 Q27,0 45,18 Q27,36 9,18" fill="none" stroke="gray"></path></marker></defs><defs><marker orient="auto" markerHeight="36" markerWidth="57" refY="18" refX="18" id="ZERO_OR_MORE_START"><circle r="6" cy="18" cx="48" fill="white" stroke="gray"></circle><path d="M0,18 Q18,0 36,18 Q18,36 0,18" fill="none" stroke="gray"></path></marker></defs><defs><marker orient="auto" markerHeight="36" markerWidth="57" refY="18" refX="39" id="ZERO_OR_MORE_END"><circle r="6" cy="18" cx="9" fill="white" stroke="gray"></circle><path d="M21,18 Q39,0 57,18 Q39,36 21,18" fill="none" stroke="gray"></path></marker></defs><path marker-start="url(#ZERO_OR_MORE_START)" marker-end="url(#ONLY_ONE_END)" style="stroke: gray; fill: none;" d="M70.675,438L70.675,446.333C70.675,454.667,70.675,471.333,74.336,488C77.996,504.667,85.318,521.333,88.979,529.667L92.639,538" class="er relationshipLine"></path><path marker-start="url(#ONE_OR_MORE_START)" marker-end="url(#ZERO_OR_MORE_END)" style="stroke: gray; fill: none;" d="M146.012,781L146.012,789.333C146.012,797.667,146.012,814.333,151.53,831C157.047,847.667,168.082,864.333,173.599,872.667L179.117,881" class="er relationshipLine"></path><path marker-start="url(#ZERO_OR_MORE_START)" marker-end="url(#ONLY_ONE_END)" style="stroke: gray; fill: none;" d="M221.35,215L221.35,223.333C221.35,231.667,221.35,248.333,221.35,275.25C221.35,302.167,221.35,339.333,221.35,376.5C221.35,413.667,221.35,450.833,217.689,477.75C214.029,504.667,206.707,521.333,203.046,529.667L199.386,538" class="er relationshipLine"></path><path marker-start="url(#ONLY_ONE_START)" marker-end="url(#ZERO_OR_MORE_END)" style="stroke: gray; fill: none;" d="M154.125,183.308L140.217,196.924C126.308,210.539,98.492,237.769,84.583,259.718C70.675,281.667,70.675,298.333,70.675,306.667L70.675,315" class="er relationshipLine"></path><path marker-start="url(#ZERO_OR_MORE_START)" marker-end="url(#ZERO_OR_ONE_END)" style="stroke: gray; fill: none;" d="M288.575,188.472L300.656,201.227C312.737,213.981,336.9,239.491,348.981,270.829C361.063,302.167,361.063,339.333,361.063,376.5C361.063,413.667,361.063,450.833,361.063,498C361.063,545.167,361.063,602.333,361.063,659.5C361.063,716.667,361.063,773.833,353.354,810.75C345.646,847.667,330.229,864.333,322.521,872.667L314.813,881" class="er relationshipLine"></path><g transform="translate(66.58749580383301,538 )" id="entity-User-818c511a-4a32-5484-ba70-875d765a9175"><rect height="243" width="158.8499984741211" y="0" x="0" class="er entityBox"></rect><text transform="translate(79.42499923706055,13.5)" style="dominant-baseline: middle; text-anchor: middle; font-size: 12px;" y="0" x="0" id="text-entity-User-818c511a-4a32-5484-ba70-875d765a9175" class="er entityLabel">User</text><rect height="24" width="98.38333129882812" y="27" x="0" class="er attributeBoxOdd"></rect><text transform="translate(5,39)" style="dominant-baseline: middle; font-size: 10.2px;" y="0" x="0" id="text-entity-User-818c511a-4a32-5484-ba70-875d765a9175-attr-1-type" class="er entityLabel">id</text><rect height="24" width="37.983333587646484" y="27" x="98.38333129882812" class="er attributeBoxOdd"></rect><text transform="translate(103.38333129882812,39)" style="dominant-baseline: middle; font-size: 10.2px;" y="0" x="0" id="text-entity-User-818c511a-4a32-5484-ba70-875d765a9175-attr-1-name" class="er entityLabel">int</text><rect height="24" width="22.483333587646484" y="27" x="136.3666648864746" class="er attributeBoxOdd"></rect><text transform="translate(141.3666648864746,39)" style="dominant-baseline: middle; font-size: 10.2px;" y="0" x="0" id="text-entity-User-818c511a-4a32-5484-ba70-875d765a9175-attr-1-key" class="er entityLabel">PK</text><rect height="24" width="98.38333129882812" y="51" x="0" class="er attributeBoxEven"></rect><text transform="translate(5,63)" style="dominant-baseline: middle; font-size: 10.2px;" y="0" x="0" id="text-entity-User-818c511a-4a32-5484-ba70-875d765a9175-attr-2-type" class="er entityLabel">username</text><rect height="24" width="37.983333587646484" y="51" x="98.38333129882812" class="er attributeBoxEven"></rect><text transform="translate(103.38333129882812,63)" style="dominant-baseline: middle; font-size: 10.2px;" y="0" x="0" id="text-entity-User-818c511a-4a32-5484-ba70-875d765a9175-attr-2-name" class="er entityLabel">string</text><rect height="24" width="22.483333587646484" y="51" x="136.3666648864746" class="er attributeBoxEven"></rect><text transform="translate(141.3666648864746,63)" style="dominant-baseline: middle; font-size: 10.2px;" y="0" x="0" id="text-entity-User-818c511a-4a32-5484-ba70-875d765a9175-attr-2-key" class="er entityLabel"></text><rect height="24" width="98.38333129882812" y="75" x="0" class="er attributeBoxOdd"></rect><text transform="translate(5,87)" style="dominant-baseline: middle; font-size: 10.2px;" y="0" x="0" id="text-entity-User-818c511a-4a32-5484-ba70-875d765a9175-attr-3-type" class="er entityLabel">email</text><rect height="24" width="37.983333587646484" y="75" x="98.38333129882812" class="er attributeBoxOdd"></rect><text transform="translate(103.38333129882812,87)" style="dominant-baseline: middle; font-size: 10.2px;" y="0" x="0" id="text-entity-User-818c511a-4a32-5484-ba70-875d765a9175-attr-3-name" class="er entityLabel">string</text><rect height="24" width="22.483333587646484" y="75" x="136.3666648864746" class="er attributeBoxOdd"></rect><text transform="translate(141.3666648864746,87)" style="dominant-baseline: middle; font-size: 10.2px;" y="0" x="0" id="text-entity-User-818c511a-4a32-5484-ba70-875d765a9175-attr-3-key" class="er entityLabel"></text><rect height="24" width="98.38333129882812" y="99" x="0" class="er attributeBoxEven"></rect><text transform="translate(5,111)" style="dominant-baseline: middle; font-size: 10.2px;" y="0" x="0" id="text-entity-User-818c511a-4a32-5484-ba70-875d765a9175-attr-4-type" class="er entityLabel">password</text><rect height="24" width="37.983333587646484" y="99" x="98.38333129882812" class="er attributeBoxEven"></rect><text transform="translate(103.38333129882812,111)" style="dominant-baseline: middle; font-size: 10.2px;" y="0" x="0" id="text-entity-User-818c511a-4a32-5484-ba70-875d765a9175-attr-4-name" class="er entityLabel">string</text><rect height="24" width="22.483333587646484" y="99" x="136.3666648864746" class="er attributeBoxEven"></rect><text transform="translate(141.3666648864746,111)" style="dominant-baseline: middle; font-size: 10.2px;" y="0" x="0" id="text-entity-User-818c511a-4a32-5484-ba70-875d765a9175-attr-4-key" class="er entityLabel"></text><rect height="24" width="98.38333129882812" y="123" x="0" class="er attributeBoxOdd"></rect><text transform="translate(5,135)" style="dominant-baseline: middle; font-size: 10.2px;" y="0" x="0" id="text-entity-User-818c511a-4a32-5484-ba70-875d765a9175-attr-5-type" class="er entityLabel">xp</text><rect height="24" width="37.983333587646484" y="123" x="98.38333129882812" class="er attributeBoxOdd"></rect><text transform="translate(103.38333129882812,135)" style="dominant-baseline: middle; font-size: 10.2px;" y="0" x="0" id="text-entity-User-818c511a-4a32-5484-ba70-875d765a9175-attr-5-name" class="er entityLabel">int</text><rect height="24" width="22.483333587646484" y="123" x="136.3666648864746" class="er attributeBoxOdd"></rect><text transform="translate(141.3666648864746,135)" style="dominant-baseline: middle; font-size: 10.2px;" y="0" x="0" id="text-entity-User-818c511a-4a32-5484-ba70-875d765a9175-attr-5-key" class="er entityLabel"></text><rect height="24" width="98.38333129882812" y="147" x="0" class="er attributeBoxEven"></rect><text transform="translate(5,159)" style="dominant-baseline: middle; font-size: 10.2px;" y="0" x="0" id="text-entity-User-818c511a-4a32-5484-ba70-875d765a9175-attr-6-type" class="er entityLabel">profilePicture</text><rect height="24" width="37.983333587646484" y="147" x="98.38333129882812" class="er attributeBoxEven"></rect><text transform="translate(103.38333129882812,159)" style="dominant-baseline: middle; font-size: 10.2px;" y="0" x="0" id="text-entity-User-818c511a-4a32-5484-ba70-875d765a9175-attr-6-name" class="er entityLabel">string</text><rect height="24" width="22.483333587646484" y="147" x="136.3666648864746" class="er attributeBoxEven"></rect><text transform="translate(141.3666648864746,159)" style="dominant-baseline: middle; font-size: 10.2px;" y="0" x="0" id="text-entity-User-818c511a-4a32-5484-ba70-875d765a9175-attr-6-key" class="er entityLabel"></text><rect height="24" width="98.38333129882812" y="171" x="0" class="er attributeBoxOdd"></rect><text transform="translate(5,183)" style="dominant-baseline: middle; font-size: 10.2px;" y="0" x="0" id="text-entity-User-818c511a-4a32-5484-ba70-875d765a9175-attr-7-type" class="er entityLabel">bannerPicture</text><rect height="24" width="37.983333587646484" y="171" x="98.38333129882812" class="er attributeBoxOdd"></rect><text transform="translate(103.38333129882812,183)" style="dominant-baseline: middle; font-size: 10.2px;" y="0" x="0" id="text-entity-User-818c511a-4a32-5484-ba70-875d765a9175-attr-7-name" class="er entityLabel">string</text><rect height="24" width="22.483333587646484" y="171" x="136.3666648864746" class="er attributeBoxOdd"></rect><text transform="translate(141.3666648864746,183)" style="dominant-baseline: middle; font-size: 10.2px;" y="0" x="0" id="text-entity-User-818c511a-4a32-5484-ba70-875d765a9175-attr-7-key" class="er entityLabel"></text><rect height="24" width="98.38333129882812" y="195" x="0" class="er attributeBoxEven"></rect><text transform="translate(5,207)" style="dominant-baseline: middle; font-size: 10.2px;" y="0" x="0" id="text-entity-User-818c511a-4a32-5484-ba70-875d765a9175-attr-8-type" class="er entityLabel">backgroundImage</text><rect height="24" width="37.983333587646484" y="195" x="98.38333129882812" class="er attributeBoxEven"></rect><text transform="translate(103.38333129882812,207)" style="dominant-baseline: middle; font-size: 10.2px;" y="0" x="0" id="text-entity-User-818c511a-4a32-5484-ba70-875d765a9175-attr-8-name" class="er entityLabel">string</text><rect height="24" width="22.483333587646484" y="195" x="136.3666648864746" class="er attributeBoxEven"></rect><text transform="translate(141.3666648864746,207)" style="dominant-baseline: middle; font-size: 10.2px;" y="0" x="0" id="text-entity-User-818c511a-4a32-5484-ba70-875d765a9175-attr-8-key" class="er entityLabel"></text><rect height="24" width="98.38333129882812" y="219" x="0" class="er attributeBoxOdd"></rect><text transform="translate(5,231)" style="dominant-baseline: middle; font-size: 10.2px;" y="0" x="0" id="text-entity-User-818c511a-4a32-5484-ba70-875d765a9175-attr-9-type" class="er entityLabel">accentColor</text><rect height="24" width="37.983333587646484" y="219" x="98.38333129882812" class="er attributeBoxOdd"></rect><text transform="translate(103.38333129882812,231)" style="dominant-baseline: middle; font-size: 10.2px;" y="0" x="0" id="text-entity-User-818c511a-4a32-5484-ba70-875d765a9175-attr-9-name" class="er entityLabel">string</text><rect height="24" width="22.483333587646484" y="219" x="136.3666648864746" class="er attributeBoxOdd"></rect><text transform="translate(141.3666648864746,231)" style="dominant-baseline: middle; font-size: 10.2px;" y="0" x="0" id="text-entity-User-818c511a-4a32-5484-ba70-875d765a9175-attr-9-key" class="er entityLabel"></text></g><g transform="translate(20,315 )" id="entity-Comment-09a819da-2a79-5b7d-8a84-94cec22d9152"><rect height="123" width="101.35000038146973" y="0" x="0" class="er entityBox"></rect><text transform="translate(50.67500019073486,13.5)" style="dominant-baseline: middle; text-anchor: middle; font-size: 12px;" y="0" x="0" id="text-entity-Comment-09a819da-2a79-5b7d-8a84-94cec22d9152" class="er entityLabel">Comment</text><rect height="24" width="40.88333320617676" y="27" x="0" class="er attributeBoxOdd"></rect><text transform="translate(5,39)" style="dominant-baseline: middle; font-size: 10.2px;" y="0" x="0" id="text-entity-Comment-09a819da-2a79-5b7d-8a84-94cec22d9152-attr-1-type" class="er entityLabel">id</text><rect height="24" width="37.983333587646484" y="27" x="40.88333320617676" class="er attributeBoxOdd"></rect><text transform="translate(45.88333320617676,39)" style="dominant-baseline: middle; font-size: 10.2px;" y="0" x="0" id="text-entity-Comment-09a819da-2a79-5b7d-8a84-94cec22d9152-attr-1-name" class="er entityLabel">int</text><rect height="24" width="22.483333587646484" y="27" x="78.86666679382324" class="er attributeBoxOdd"></rect><text transform="translate(83.86666679382324,39)" style="dominant-baseline: middle; font-size: 10.2px;" y="0" x="0" id="text-entity-Comment-09a819da-2a79-5b7d-8a84-94cec22d9152-attr-1-key" class="er entityLabel">PK</text><rect height="24" width="40.88333320617676" y="51" x="0" class="er attributeBoxEven"></rect><text transform="translate(5,63)" style="dominant-baseline: middle; font-size: 10.2px;" y="0" x="0" id="text-entity-Comment-09a819da-2a79-5b7d-8a84-94cec22d9152-attr-2-type" class="er entityLabel">text</text><rect height="24" width="37.983333587646484" y="51" x="40.88333320617676" class="er attributeBoxEven"></rect><text transform="translate(45.88333320617676,63)" style="dominant-baseline: middle; font-size: 10.2px;" y="0" x="0" id="text-entity-Comment-09a819da-2a79-5b7d-8a84-94cec22d9152-attr-2-name" class="er entityLabel">string</text><rect height="24" width="22.483333587646484" y="51" x="78.86666679382324" class="er attributeBoxEven"></rect><text transform="translate(83.86666679382324,63)" style="dominant-baseline: middle; font-size: 10.2px;" y="0" x="0" id="text-entity-Comment-09a819da-2a79-5b7d-8a84-94cec22d9152-attr-2-key" class="er entityLabel"></text><rect height="24" width="40.88333320617676" y="75" x="0" class="er attributeBoxOdd"></rect><text transform="translate(5,87)" style="dominant-baseline: middle; font-size: 10.2px;" y="0" x="0" id="text-entity-Comment-09a819da-2a79-5b7d-8a84-94cec22d9152-attr-3-type" class="er entityLabel">userId</text><rect height="24" width="37.983333587646484" y="75" x="40.88333320617676" class="er attributeBoxOdd"></rect><text transform="translate(45.88333320617676,87)" style="dominant-baseline: middle; font-size: 10.2px;" y="0" x="0" id="text-entity-Comment-09a819da-2a79-5b7d-8a84-94cec22d9152-attr-3-name" class="er entityLabel">int</text><rect height="24" width="22.483333587646484" y="75" x="78.86666679382324" class="er attributeBoxOdd"></rect><text transform="translate(83.86666679382324,87)" style="dominant-baseline: middle; font-size: 10.2px;" y="0" x="0" id="text-entity-Comment-09a819da-2a79-5b7d-8a84-94cec22d9152-attr-3-key" class="er entityLabel">FK</text><rect height="24" width="40.88333320617676" y="99" x="0" class="er attributeBoxEven"></rect><text transform="translate(5,111)" style="dominant-baseline: middle; font-size: 10.2px;" y="0" x="0" id="text-entity-Comment-09a819da-2a79-5b7d-8a84-94cec22d9152-attr-4-type" class="er entityLabel">postId</text><rect height="24" width="37.983333587646484" y="99" x="40.88333320617676" class="er attributeBoxEven"></rect><text transform="translate(45.88333320617676,111)" style="dominant-baseline: middle; font-size: 10.2px;" y="0" x="0" id="text-entity-Comment-09a819da-2a79-5b7d-8a84-94cec22d9152-attr-4-name" class="er entityLabel">int</text><rect height="24" width="22.483333587646484" y="99" x="78.86666679382324" class="er attributeBoxEven"></rect><text transform="translate(83.86666679382324,111)" style="dominant-baseline: middle; font-size: 10.2px;" y="0" x="0" id="text-entity-Comment-09a819da-2a79-5b7d-8a84-94cec22d9152-attr-4-key" class="er entityLabel">FK</text></g><g transform="translate(156.2999973297119,881 )" id="entity-Community-bd8f9868-7f31-5baf-872b-a65ae610feeb"><rect height="171" width="158.8499984741211" y="0" x="0" class="er entityBox"></rect><text transform="translate(79.42499923706055,13.5)" style="dominant-baseline: middle; text-anchor: middle; font-size: 12px;" y="0" x="0" id="text-entity-Community-bd8f9868-7f31-5baf-872b-a65ae610feeb" class="er entityLabel">Community</text><rect height="24" width="98.38333129882812" y="27" x="0" class="er attributeBoxOdd"></rect><text transform="translate(5,39)" style="dominant-baseline: middle; font-size: 10.2px;" y="0" x="0" id="text-entity-Community-bd8f9868-7f31-5baf-872b-a65ae610feeb-attr-1-type" class="er entityLabel">id</text><rect height="24" width="37.983333587646484" y="27" x="98.38333129882812" class="er attributeBoxOdd"></rect><text transform="translate(103.38333129882812,39)" style="dominant-baseline: middle; font-size: 10.2px;" y="0" x="0" id="text-entity-Community-bd8f9868-7f31-5baf-872b-a65ae610feeb-attr-1-name" class="er entityLabel">int</text><rect height="24" width="22.483333587646484" y="27" x="136.3666648864746" class="er attributeBoxOdd"></rect><text transform="translate(141.3666648864746,39)" style="dominant-baseline: middle; font-size: 10.2px;" y="0" x="0" id="text-entity-Community-bd8f9868-7f31-5baf-872b-a65ae610feeb-attr-1-key" class="er entityLabel">PK</text><rect height="24" width="98.38333129882812" y="51" x="0" class="er attributeBoxEven"></rect><text transform="translate(5,63)" style="dominant-baseline: middle; font-size: 10.2px;" y="0" x="0" id="text-entity-Community-bd8f9868-7f31-5baf-872b-a65ae610feeb-attr-2-type" class="er entityLabel">name</text><rect height="24" width="37.983333587646484" y="51" x="98.38333129882812" class="er attributeBoxEven"></rect><text transform="translate(103.38333129882812,63)" style="dominant-baseline: middle; font-size: 10.2px;" y="0" x="0" id="text-entity-Community-bd8f9868-7f31-5baf-872b-a65ae610feeb-attr-2-name" class="er entityLabel">string</text><rect height="24" width="22.483333587646484" y="51" x="136.3666648864746" class="er attributeBoxEven"></rect><text transform="translate(141.3666648864746,63)" style="dominant-baseline: middle; font-size: 10.2px;" y="0" x="0" id="text-entity-Community-bd8f9868-7f31-5baf-872b-a65ae610feeb-attr-2-key" class="er entityLabel"></text><rect height="24" width="98.38333129882812" y="75" x="0" class="er attributeBoxOdd"></rect><text transform="translate(5,87)" style="dominant-baseline: middle; font-size: 10.2px;" y="0" x="0" id="text-entity-Community-bd8f9868-7f31-5baf-872b-a65ae610feeb-attr-3-type" class="er entityLabel">profilePicture</text><rect height="24" width="37.983333587646484" y="75" x="98.38333129882812" class="er attributeBoxOdd"></rect><text transform="translate(103.38333129882812,87)" style="dominant-baseline: middle; font-size: 10.2px;" y="0" x="0" id="text-entity-Community-bd8f9868-7f31-5baf-872b-a65ae610feeb-attr-3-name" class="er entityLabel">string</text><rect height="24" width="22.483333587646484" y="75" x="136.3666648864746" class="er attributeBoxOdd"></rect><text transform="translate(141.3666648864746,87)" style="dominant-baseline: middle; font-size: 10.2px;" y="0" x="0" id="text-entity-Community-bd8f9868-7f31-5baf-872b-a65ae610feeb-attr-3-key" class="er entityLabel"></text><rect height="24" width="98.38333129882812" y="99" x="0" class="er attributeBoxEven"></rect><text transform="translate(5,111)" style="dominant-baseline: middle; font-size: 10.2px;" y="0" x="0" id="text-entity-Community-bd8f9868-7f31-5baf-872b-a65ae610feeb-attr-4-type" class="er entityLabel">backgroundImage</text><rect height="24" width="37.983333587646484" y="99" x="98.38333129882812" class="er attributeBoxEven"></rect><text transform="translate(103.38333129882812,111)" style="dominant-baseline: middle; font-size: 10.2px;" y="0" x="0" id="text-entity-Community-bd8f9868-7f31-5baf-872b-a65ae610feeb-attr-4-name" class="er entityLabel">string</text><rect height="24" width="22.483333587646484" y="99" x="136.3666648864746" class="er attributeBoxEven"></rect><text transform="translate(141.3666648864746,111)" style="dominant-baseline: middle; font-size: 10.2px;" y="0" x="0" id="text-entity-Community-bd8f9868-7f31-5baf-872b-a65ae610feeb-attr-4-key" class="er entityLabel"></text><rect height="24" width="98.38333129882812" y="123" x="0" class="er attributeBoxOdd"></rect><text transform="translate(5,135)" style="dominant-baseline: middle; font-size: 10.2px;" y="0" x="0" id="text-entity-Community-bd8f9868-7f31-5baf-872b-a65ae610feeb-attr-5-type" class="er entityLabel">bannerPicture</text><rect height="24" width="37.983333587646484" y="123" x="98.38333129882812" class="er attributeBoxOdd"></rect><text transform="translate(103.38333129882812,135)" style="dominant-baseline: middle; font-size: 10.2px;" y="0" x="0" id="text-entity-Community-bd8f9868-7f31-5baf-872b-a65ae610feeb-attr-5-name" class="er entityLabel">string</text><rect height="24" width="22.483333587646484" y="123" x="136.3666648864746" class="er attributeBoxOdd"></rect><text transform="translate(141.3666648864746,135)" style="dominant-baseline: middle; font-size: 10.2px;" y="0" x="0" id="text-entity-Community-bd8f9868-7f31-5baf-872b-a65ae610feeb-attr-5-key" class="er entityLabel"></text><rect height="24" width="98.38333129882812" y="147" x="0" class="er attributeBoxEven"></rect><text transform="translate(5,159)" style="dominant-baseline: middle; font-size: 10.2px;" y="0" x="0" id="text-entity-Community-bd8f9868-7f31-5baf-872b-a65ae610feeb-attr-6-type" class="er entityLabel">adminUserId</text><rect height="24" width="37.983333587646484" y="147" x="98.38333129882812" class="er attributeBoxEven"></rect><text transform="translate(103.38333129882812,159)" style="dominant-baseline: middle; font-size: 10.2px;" y="0" x="0" id="text-entity-Community-bd8f9868-7f31-5baf-872b-a65ae610feeb-attr-6-name" class="er entityLabel">int</text><rect height="24" width="22.483333587646484" y="147" x="136.3666648864746" class="er attributeBoxEven"></rect><text transform="translate(141.3666648864746,159)" style="dominant-baseline: middle; font-size: 10.2px;" y="0" x="0" id="text-entity-Community-bd8f9868-7f31-5baf-872b-a65ae610feeb-attr-6-key" class="er entityLabel">FK</text></g><g transform="translate(154.125,20 )" id="entity-Post-532e386b-856e-5baf-9389-a9bdd31661fe"><rect height="195" width="134.45000076293945" y="0" x="0" class="er entityBox"></rect><text transform="translate(67.22500038146973,13.5)" style="dominant-baseline: middle; text-anchor: middle; font-size: 12px;" y="0" x="0" id="text-entity-Post-532e386b-856e-5baf-9389-a9bdd31661fe" class="er entityLabel">Post</text><rect height="24" width="73.98333358764648" y="27" x="0" class="er attributeBoxOdd"></rect><text transform="translate(5,39)" style="dominant-baseline: middle; font-size: 10.2px;" y="0" x="0" id="text-entity-Post-532e386b-856e-5baf-9389-a9bdd31661fe-attr-1-type" class="er entityLabel">id</text><rect height="24" width="37.983333587646484" y="27" x="73.98333358764648" class="er attributeBoxOdd"></rect><text transform="translate(78.98333358764648,39)" style="dominant-baseline: middle; font-size: 10.2px;" y="0" x="0" id="text-entity-Post-532e386b-856e-5baf-9389-a9bdd31661fe-attr-1-name" class="er entityLabel">int</text><rect height="24" width="22.483333587646484" y="27" x="111.96666717529297" class="er attributeBoxOdd"></rect><text transform="translate(116.96666717529297,39)" style="dominant-baseline: middle; font-size: 10.2px;" y="0" x="0" id="text-entity-Post-532e386b-856e-5baf-9389-a9bdd31661fe-attr-1-key" class="er entityLabel">PK</text><rect height="24" width="73.98333358764648" y="51" x="0" class="er attributeBoxEven"></rect><text transform="translate(5,63)" style="dominant-baseline: middle; font-size: 10.2px;" y="0" x="0" id="text-entity-Post-532e386b-856e-5baf-9389-a9bdd31661fe-attr-2-type" class="er entityLabel">title</text><rect height="24" width="37.983333587646484" y="51" x="73.98333358764648" class="er attributeBoxEven"></rect><text transform="translate(78.98333358764648,63)" style="dominant-baseline: middle; font-size: 10.2px;" y="0" x="0" id="text-entity-Post-532e386b-856e-5baf-9389-a9bdd31661fe-attr-2-name" class="er entityLabel">string</text><rect height="24" width="22.483333587646484" y="51" x="111.96666717529297" class="er attributeBoxEven"></rect><text transform="translate(116.96666717529297,63)" style="dominant-baseline: middle; font-size: 10.2px;" y="0" x="0" id="text-entity-Post-532e386b-856e-5baf-9389-a9bdd31661fe-attr-2-key" class="er entityLabel"></text><rect height="24" width="73.98333358764648" y="75" x="0" class="er attributeBoxOdd"></rect><text transform="translate(5,87)" style="dominant-baseline: middle; font-size: 10.2px;" y="0" x="0" id="text-entity-Post-532e386b-856e-5baf-9389-a9bdd31661fe-attr-3-type" class="er entityLabel">text</text><rect height="24" width="37.983333587646484" y="75" x="73.98333358764648" class="er attributeBoxOdd"></rect><text transform="translate(78.98333358764648,87)" style="dominant-baseline: middle; font-size: 10.2px;" y="0" x="0" id="text-entity-Post-532e386b-856e-5baf-9389-a9bdd31661fe-attr-3-name" class="er entityLabel">string</text><rect height="24" width="22.483333587646484" y="75" x="111.96666717529297" class="er attributeBoxOdd"></rect><text transform="translate(116.96666717529297,87)" style="dominant-baseline: middle; font-size: 10.2px;" y="0" x="0" id="text-entity-Post-532e386b-856e-5baf-9389-a9bdd31661fe-attr-3-key" class="er entityLabel"></text><rect height="24" width="73.98333358764648" y="99" x="0" class="er attributeBoxEven"></rect><text transform="translate(5,111)" style="dominant-baseline: middle; font-size: 10.2px;" y="0" x="0" id="text-entity-Post-532e386b-856e-5baf-9389-a9bdd31661fe-attr-4-type" class="er entityLabel">image</text><rect height="24" width="37.983333587646484" y="99" x="73.98333358764648" class="er attributeBoxEven"></rect><text transform="translate(78.98333358764648,111)" style="dominant-baseline: middle; font-size: 10.2px;" y="0" x="0" id="text-entity-Post-532e386b-856e-5baf-9389-a9bdd31661fe-attr-4-name" class="er entityLabel">int</text><rect height="24" width="22.483333587646484" y="99" x="111.96666717529297" class="er attributeBoxEven"></rect><text transform="translate(116.96666717529297,111)" style="dominant-baseline: middle; font-size: 10.2px;" y="0" x="0" id="text-entity-Post-532e386b-856e-5baf-9389-a9bdd31661fe-attr-4-key" class="er entityLabel"></text><rect height="24" width="73.98333358764648" y="123" x="0" class="er attributeBoxOdd"></rect><text transform="translate(5,135)" style="dominant-baseline: middle; font-size: 10.2px;" y="0" x="0" id="text-entity-Post-532e386b-856e-5baf-9389-a9bdd31661fe-attr-5-type" class="er entityLabel">likes</text><rect height="24" width="37.983333587646484" y="123" x="73.98333358764648" class="er attributeBoxOdd"></rect><text transform="translate(78.98333358764648,135)" style="dominant-baseline: middle; font-size: 10.2px;" y="0" x="0" id="text-entity-Post-532e386b-856e-5baf-9389-a9bdd31661fe-attr-5-name" class="er entityLabel">int</text><rect height="24" width="22.483333587646484" y="123" x="111.96666717529297" class="er attributeBoxOdd"></rect><text transform="translate(116.96666717529297,135)" style="dominant-baseline: middle; font-size: 10.2px;" y="0" x="0" id="text-entity-Post-532e386b-856e-5baf-9389-a9bdd31661fe-attr-5-key" class="er entityLabel"></text><rect height="24" width="73.98333358764648" y="147" x="0" class="er attributeBoxEven"></rect><text transform="translate(5,159)" style="dominant-baseline: middle; font-size: 10.2px;" y="0" x="0" id="text-entity-Post-532e386b-856e-5baf-9389-a9bdd31661fe-attr-6-type" class="er entityLabel">userId</text><rect height="24" width="37.983333587646484" y="147" x="73.98333358764648" class="er attributeBoxEven"></rect><text transform="translate(78.98333358764648,159)" style="dominant-baseline: middle; font-size: 10.2px;" y="0" x="0" id="text-entity-Post-532e386b-856e-5baf-9389-a9bdd31661fe-attr-6-name" class="er entityLabel">int</text><rect height="24" width="22.483333587646484" y="147" x="111.96666717529297" class="er attributeBoxEven"></rect><text transform="translate(116.96666717529297,159)" style="dominant-baseline: middle; font-size: 10.2px;" y="0" x="0" id="text-entity-Post-532e386b-856e-5baf-9389-a9bdd31661fe-attr-6-key" class="er entityLabel">FK</text><rect height="24" width="73.98333358764648" y="171" x="0" class="er attributeBoxOdd"></rect><text transform="translate(5,183)" style="dominant-baseline: middle; font-size: 10.2px;" y="0" x="0" id="text-entity-Post-532e386b-856e-5baf-9389-a9bdd31661fe-attr-7-type" class="er entityLabel">communityId</text><rect height="24" width="37.983333587646484" y="171" x="73.98333358764648" class="er attributeBoxOdd"></rect><text transform="translate(78.98333358764648,183)" style="dominant-baseline: middle; font-size: 10.2px;" y="0" x="0" id="text-entity-Post-532e386b-856e-5baf-9389-a9bdd31661fe-attr-7-name" class="er entityLabel">int</text><rect height="24" width="22.483333587646484" y="171" x="111.96666717529297" class="er attributeBoxOdd"></rect><text transform="translate(116.96666717529297,183)" style="dominant-baseline: middle; font-size: 10.2px;" y="0" x="0" id="text-entity-Post-532e386b-856e-5baf-9389-a9bdd31661fe-attr-7-key" class="er entityLabel">FK</text></g><rect height="17" width="59.78333282470703" y="481.0088195800781" x="44.78555679321289" class="er relationshipLabelBox"></rect><text style="text-anchor: middle; dominant-baseline: middle; font-size: 12px;" y="489.5088195800781" x="74.6772232055664" id="rel3510" class="er relationshipLabel">belongs to</text><rect height="17" width="62.81666564941406" y="825.6739501953125" x="121.23705291748047" class="er relationshipLabelBox"></rect><text style="text-anchor: middle; dominant-baseline: middle; font-size: 12px;" y="834.1739501953125" x="152.6453857421875" id="rel3511" class="er relationshipLabel">member of</text><rect height="17" width="58.83333206176758" y="369.5618896484375" x="191.93329429626465" class="er relationshipLabelBox"></rect><text style="text-anchor: middle; dominant-baseline: middle; font-size: 12px;" y="378.0618896484375" x="221.34996032714844" id="rel3512" class="er relationshipLabel">created by</text><rect height="17" width="19.899999618530273" y="232.95237731933594" x="88.14860248565674" class="er relationshipLabelBox"></rect><text style="text-anchor: middle; dominant-baseline: middle; font-size: 12px;" y="241.45237731933594" x="98.09860229492188" id="rel3513" class="er relationshipLabel">has</text><rect height="17" width="59.78333282470703" y="521.1654052734375" x="331.1713218688965" class="er relationshipLabelBox"></rect><text style="text-anchor: middle; dominant-baseline: middle; font-size: 12px;" y="529.6654052734375" x="361.06298828125" id="rel3514" class="er relationshipLabel">belongs to</text></svg>