<?xml version="1.0" encoding="UTF-8"?>
<?xml-stylesheet href="https://cdnjs.cloudflare.com/ajax/libs/font-awesome/6.6.0/css/all.min.css" type="text/css"?>
<svg aria-roledescription="er" role="graphics-document document" style="overflow: hidden; max-width: 100%;" xmlns="http://www.w3.org/2000/svg" width="100%" id="graph-div" height="100%" xmlns:xlink="http://www.w3.org/1999/xlink" xmlns:ev="http://www.w3.org/2001/xml-events"><defs><marker orient="auto" markerHeight="240" markerWidth="190" refY="7" refX="0" id="MD_PARENT_START"><path d="M 18,7 L9,13 L1,7 L9,1 Z"></path></marker><style id="svg-pan-zoom-controls-styles" type="text/css">.svg-pan-zoom-control { cursor: pointer; fill: black; fill-opacity: 0.333; } .svg-pan-zoom-control:hover { fill-opacity: 0.8; } .svg-pan-zoom-control-background { fill: white; fill-opacity: 0.5; } .svg-pan-zoom-control-background { fill-opacity: 0.8; }</style></defs><defs><marker orient="auto" markerHeight="28" markerWidth="20" refY="7" refX="19" id="MD_PARENT_END"><path d="M 18,7 L9,13 L1,7 L9,1 Z"></path></marker></defs><defs><marker orient="auto" markerHeight="18" markerWidth="18" refY="9" refX="0" id="ONLY_ONE_START"><path d="M9,0 L9,18 M15,0 L15,18" fill="none" stroke="gray"></path></marker></defs><defs><marker orient="auto" markerHeight="18" markerWidth="18" refY="9" refX="18" id="ONLY_ONE_END"><path d="M3,0 L3,18 M9,0 L9,18" fill="none" stroke="gray"></path></marker></defs><defs><marker orient="auto" markerHeight="18" markerWidth="30" refY="9" refX="0" id="ZERO_OR_ONE_START"><circle r="6" cy="9" cx="21" fill="white" stroke="gray"></circle><path d="M9,0 L9,18" fill="none" stroke="gray"></path></marker></defs><defs><marker orient="auto" markerHeight="18" markerWidth="30" refY="9" refX="30" id="ZERO_OR_ONE_END"><circle r="6" cy="9" cx="9" fill="white" stroke="gray"></circle><path d="M21,0 L21,18" fill="none" stroke="gray"></path></marker></defs><defs><marker orient="auto" markerHeight="36" markerWidth="45" refY="18" refX="18" id="ONE_OR_MORE_START"><path d="M0,18 Q 18,0 36,18 Q 18,36 0,18 M42,9 L42,27" fill="none" stroke="gray"></path></marker></defs><defs><marker orient="auto" markerHeight="36" markerWidth="45" refY="18" refX="27" id="ONE_OR_MORE_END"><path d="M3,9 L3,27 M9,18 Q27,0 45,18 Q27,36 9,18" fill="none" stroke="gray"></path></marker></defs><defs><marker orient="auto" markerHeight="36" markerWidth="57" refY="18" refX="18" id="ZERO_OR_MORE_START"><circle r="6" cy="18" cx="48" fill="white" stroke="gray"></circle><path d="M0,18 Q18,0 36,18 Q18,36 0,18" fill="none" stroke="gray"></path></marker></defs><defs><marker orient="auto" markerHeight="36" markerWidth="57" refY="18" refX="39" id="ZERO_OR_MORE_END"><circle r="6" cy="18" cx="9" fill="white" stroke="gray"></circle><path d="M21,18 Q39,0 57,18 Q39,36 21,18" fill="none" stroke="gray"></path></marker></defs><g id="viewport-20250127104353084" class="svg-pan-zoom_viewport" transform="matrix(0.5275533199310303,0,0,0.5275533199310303,193.82786560058594,109.21400451660156)" style="transform: matrix(0.527553, 0, 0, 0.527553, 193.828, 109.214);"><style>#graph-div{font-family:"trebuchet ms",verdana,arial,sans-serif;font-size:16px;fill:#333;}#graph-div .error-icon{fill:#552222;}#graph-div .error-text{fill:#552222;stroke:#552222;}#graph-div .edge-thickness-normal{stroke-width:1px;}#graph-div .edge-thickness-thick{stroke-width:3.5px;}#graph-div .edge-pattern-solid{stroke-dasharray:0;}#graph-div .edge-thickness-invisible{stroke-width:0;fill:none;}#graph-div .edge-pattern-dashed{stroke-dasharray:3;}#graph-div .edge-pattern-dotted{stroke-dasharray:2;}#graph-div .marker{fill:#333333;stroke:#333333;}#graph-div .marker.cross{stroke:#333333;}#graph-div svg{font-family:"trebuchet ms",verdana,arial,sans-serif;font-size:16px;}#graph-div p{margin:0;}#graph-div .entityBox{fill:#ECECFF;stroke:#9370DB;}#graph-div .attributeBoxOdd{fill:#ffffff;stroke:#9370DB;}#graph-div .attributeBoxEven{fill:#f2f2f2;stroke:#9370DB;}#graph-div .relationshipLabelBox{fill:hsl(80, 100%, 96.2745098039%);opacity:0.7;background-color:hsl(80, 100%, 96.2745098039%);}#graph-div .relationshipLabelBox rect{opacity:0.5;}#graph-div .relationshipLine{stroke:#333333;}#graph-div .entityTitleText{text-anchor:middle;font-size:18px;fill:#333;}#graph-div #MD_PARENT_START{fill:#f5f5f5!important;stroke:#333333!important;stroke-width:1;}#graph-div #MD_PARENT_END{fill:#f5f5f5!important;stroke:#333333!important;stroke-width:1;}#graph-div :root{--mermaid-font-family:"trebuchet ms",verdana,arial,sans-serif;}</style><g></g><path marker-start="url(#ZERO_OR_MORE_START)" marker-end="url(#ZERO_OR_ONE_END)" style="stroke: gray; fill: none;" d="M207.392,110.128L167.449,126.606C127.506,143.085,47.619,176.043,7.676,216.271C-32.267,256.5,-32.267,304,-32.267,351.5C-32.267,399,-32.267,446.5,-32.267,492.083C-32.267,537.667,-32.267,581.333,-32.267,625C-32.267,668.667,-32.267,712.333,-23.556,745.123C-14.844,777.913,2.578,799.826,11.289,810.782L20,821.739" class="er relationshipLine"></path><path marker-start="url(#ONLY_ONE_START)" marker-end="url(#ZERO_OR_ONE_END)" style="stroke: gray; fill: none;" d="M307.392,129.333L324.058,142.611C340.725,155.889,374.058,182.444,390.725,204.056C407.392,225.667,407.392,242.333,407.392,250.667L407.392,259" class="er relationshipLine"></path><path marker-start="url(#ONE_OR_MORE_START)" marker-end="url(#ONLY_ONE_END)" style="stroke: gray; fill: none;" d="M35.164,1037L30.535,1045.333C25.906,1053.667,16.649,1070.333,60.674,1092.398C104.7,1114.463,202.008,1141.926,250.662,1155.657L299.317,1169.389" class="er relationshipLine"></path><path marker-start="url(#ONE_OR_MORE_START)" marker-end="url(#ONLY_ONE_END)" style="stroke: gray; fill: none;" d="M104.952,1037L105.359,1045.333C105.765,1053.667,106.578,1070.333,138.973,1091.426C171.367,1112.519,235.342,1138.037,267.329,1150.797L299.317,1163.556" class="er relationshipLine"></path><path marker-start="url(#ONE_OR_MORE_START)" marker-end="url(#ONLY_ONE_END)" style="stroke: gray; fill: none;" d="M178.633,1004.542L191.76,1018.285C204.886,1032.028,231.139,1059.514,252.204,1081.59C273.268,1103.667,289.145,1120.333,297.083,1128.667L305.021,1137" class="er relationshipLine"></path><path marker-start="url(#ZERO_OR_MORE_START)" marker-end="url(#ZERO_OR_ONE_END)" style="stroke: gray; fill: none;" d="M344.225,380.718L303.407,399.598C262.589,418.478,180.953,456.239,140.135,496.953C99.317,537.667,99.317,581.333,99.317,625C99.317,668.667,99.317,712.333,99.317,742.5C99.317,772.667,99.317,789.333,99.317,797.667L99.317,806" class="er relationshipLine"></path><path marker-start="url(#ZERO_OR_MORE_START)" marker-end="url(#ZERO_OR_ONE_END)" style="stroke: gray; fill: none;" d="M407.392,444L407.392,452.333C407.392,460.667,407.392,477.333,407.392,494C407.392,510.667,407.392,527.333,407.392,535.667L407.392,544" class="er relationshipLine"></path><path marker-start="url(#ZERO_OR_ONE_START)" marker-end="url(#ZERO_OR_ONE_END)" style="stroke: gray; fill: none;" d="M470.558,387.505L501.697,405.254C532.836,423.003,595.114,458.502,626.253,498.084C657.392,537.667,657.392,581.333,657.392,625C657.392,668.667,657.392,712.333,657.392,761.75C657.392,811.167,657.392,866.333,657.392,921.5C657.392,976.667,657.392,1031.833,614.379,1072.89C571.367,1113.946,485.342,1140.892,442.329,1154.365L399.317,1167.838" class="er relationshipLine"></path><path marker-start="url(#ONLY_ONE_START)" marker-end="url(#ZERO_OR_ONE_END)" style="stroke: gray; fill: none;" d="M328.075,679.785L309.685,692.488C291.294,705.19,254.514,730.595,229.607,752.405C204.7,774.215,191.667,792.431,185.15,801.539L178.633,810.646" class="er relationshipLine"></path><path marker-start="url(#ONE_OR_MORE_START)" marker-end="url(#ONLY_ONE_END)" style="stroke: gray; fill: none;" d="M376.476,706L373.295,714.333C370.114,722.667,363.753,739.333,360.572,775.25C357.392,811.167,357.392,866.333,357.392,921.5C357.392,976.667,357.392,1031.833,356.694,1067.75C355.997,1103.667,354.602,1120.333,353.905,1128.667L353.208,1137" class="er relationshipLine"></path><path marker-start="url(#ONE_OR_MORE_START)" marker-end="url(#ONLY_ONE_END)" style="stroke: gray; fill: none;" d="M438.308,706L441.488,714.333C444.669,722.667,451.03,739.333,454.211,775.25C457.392,811.167,457.392,866.333,457.392,921.5C457.392,976.667,457.392,1031.833,447.712,1068.059C438.033,1104.285,418.675,1121.57,408.996,1130.213L399.317,1138.855" class="er relationshipLine"></path><path marker-start="url(#ONE_OR_MORE_START)" marker-end="url(#ONLY_ONE_END)" style="stroke: gray; fill: none;" d="M486.708,694.27L498.489,704.558C510.269,714.847,533.831,735.423,545.611,773.295C557.392,811.167,557.392,866.333,557.392,921.5C557.392,976.667,557.392,1031.833,531.046,1071.635C504.7,1111.437,452.008,1135.874,425.662,1148.093L399.317,1160.311" class="er relationshipLine"></path><g transform="translate(20,806 )" id="entity-User-818c511a-4a32-5484-ba70-875d765a9175"><rect height="231" width="158.63333129882812" y="0" x="0" class="er entityBox"></rect><text transform="translate(79.31666564941406,12)" style="dominant-baseline: middle; text-anchor: middle; font-size: 12px;" y="0" x="0" id="text-entity-User-818c511a-4a32-5484-ba70-875d765a9175" class="er entityLabel">User</text><rect height="23" width="100.0999984741211" y="24" x="0" class="er attributeBoxOdd"></rect><text transform="translate(5,35.5)" style="dominant-baseline: middle; font-size: 10.2px;" y="0" x="0" id="text-entity-User-818c511a-4a32-5484-ba70-875d765a9175-attr-1-type" class="er entityLabel">id</text><rect height="23" width="34.933332443237305" y="24" x="100.0999984741211" class="er attributeBoxOdd"></rect><text transform="translate(105.0999984741211,35.5)" style="dominant-baseline: middle; font-size: 10.2px;" y="0" x="0" id="text-entity-User-818c511a-4a32-5484-ba70-875d765a9175-attr-1-name" class="er entityLabel">int</text><rect height="23" width="23.600000381469727" y="24" x="135.0333309173584" class="er attributeBoxOdd"></rect><text transform="translate(140.0333309173584,35.5)" style="dominant-baseline: middle; font-size: 10.2px;" y="0" x="0" id="text-entity-User-818c511a-4a32-5484-ba70-875d765a9175-attr-1-key" class="er entityLabel">PK</text><rect height="23" width="100.0999984741211" y="47" x="0" class="er attributeBoxEven"></rect><text transform="translate(5,58.5)" style="dominant-baseline: middle; font-size: 10.2px;" y="0" x="0" id="text-entity-User-818c511a-4a32-5484-ba70-875d765a9175-attr-2-type" class="er entityLabel">username</text><rect height="23" width="34.933332443237305" y="47" x="100.0999984741211" class="er attributeBoxEven"></rect><text transform="translate(105.0999984741211,58.5)" style="dominant-baseline: middle; font-size: 10.2px;" y="0" x="0" id="text-entity-User-818c511a-4a32-5484-ba70-875d765a9175-attr-2-name" class="er entityLabel">string</text><rect height="23" width="23.600000381469727" y="47" x="135.0333309173584" class="er attributeBoxEven"></rect><text transform="translate(140.0333309173584,58.5)" style="dominant-baseline: middle; font-size: 10.2px;" y="0" x="0" id="text-entity-User-818c511a-4a32-5484-ba70-875d765a9175-attr-2-key" class="er entityLabel"></text><rect height="23" width="100.0999984741211" y="70" x="0" class="er attributeBoxOdd"></rect><text transform="translate(5,81.5)" style="dominant-baseline: middle; font-size: 10.2px;" y="0" x="0" id="text-entity-User-818c511a-4a32-5484-ba70-875d765a9175-attr-3-type" class="er entityLabel">email</text><rect height="23" width="34.933332443237305" y="70" x="100.0999984741211" class="er attributeBoxOdd"></rect><text transform="translate(105.0999984741211,81.5)" style="dominant-baseline: middle; font-size: 10.2px;" y="0" x="0" id="text-entity-User-818c511a-4a32-5484-ba70-875d765a9175-attr-3-name" class="er entityLabel">string</text><rect height="23" width="23.600000381469727" y="70" x="135.0333309173584" class="er attributeBoxOdd"></rect><text transform="translate(140.0333309173584,81.5)" style="dominant-baseline: middle; font-size: 10.2px;" y="0" x="0" id="text-entity-User-818c511a-4a32-5484-ba70-875d765a9175-attr-3-key" class="er entityLabel"></text><rect height="23" width="100.0999984741211" y="93" x="0" class="er attributeBoxEven"></rect><text transform="translate(5,104.5)" style="dominant-baseline: middle; font-size: 10.2px;" y="0" x="0" id="text-entity-User-818c511a-4a32-5484-ba70-875d765a9175-attr-4-type" class="er entityLabel">password</text><rect height="23" width="34.933332443237305" y="93" x="100.0999984741211" class="er attributeBoxEven"></rect><text transform="translate(105.0999984741211,104.5)" style="dominant-baseline: middle; font-size: 10.2px;" y="0" x="0" id="text-entity-User-818c511a-4a32-5484-ba70-875d765a9175-attr-4-name" class="er entityLabel">string</text><rect height="23" width="23.600000381469727" y="93" x="135.0333309173584" class="er attributeBoxEven"></rect><text transform="translate(140.0333309173584,104.5)" style="dominant-baseline: middle; font-size: 10.2px;" y="0" x="0" id="text-entity-User-818c511a-4a32-5484-ba70-875d765a9175-attr-4-key" class="er entityLabel"></text><rect height="23" width="100.0999984741211" y="116" x="0" class="er attributeBoxOdd"></rect><text transform="translate(5,127.5)" style="dominant-baseline: middle; font-size: 10.2px;" y="0" x="0" id="text-entity-User-818c511a-4a32-5484-ba70-875d765a9175-attr-5-type" class="er entityLabel">xp</text><rect height="23" width="34.933332443237305" y="116" x="100.0999984741211" class="er attributeBoxOdd"></rect><text transform="translate(105.0999984741211,127.5)" style="dominant-baseline: middle; font-size: 10.2px;" y="0" x="0" id="text-entity-User-818c511a-4a32-5484-ba70-875d765a9175-attr-5-name" class="er entityLabel">int</text><rect height="23" width="23.600000381469727" y="116" x="135.0333309173584" class="er attributeBoxOdd"></rect><text transform="translate(140.0333309173584,127.5)" style="dominant-baseline: middle; font-size: 10.2px;" y="0" x="0" id="text-entity-User-818c511a-4a32-5484-ba70-875d765a9175-attr-5-key" class="er entityLabel"></text><rect height="23" width="100.0999984741211" y="139" x="0" class="er attributeBoxEven"></rect><text transform="translate(5,150.5)" style="dominant-baseline: middle; font-size: 10.2px;" y="0" x="0" id="text-entity-User-818c511a-4a32-5484-ba70-875d765a9175-attr-6-type" class="er entityLabel">profileImageId</text><rect height="23" width="34.933332443237305" y="139" x="100.0999984741211" class="er attributeBoxEven"></rect><text transform="translate(105.0999984741211,150.5)" style="dominant-baseline: middle; font-size: 10.2px;" y="0" x="0" id="text-entity-User-818c511a-4a32-5484-ba70-875d765a9175-attr-6-name" class="er entityLabel">int</text><rect height="23" width="23.600000381469727" y="139" x="135.0333309173584" class="er attributeBoxEven"></rect><text transform="translate(140.0333309173584,150.5)" style="dominant-baseline: middle; font-size: 10.2px;" y="0" x="0" id="text-entity-User-818c511a-4a32-5484-ba70-875d765a9175-attr-6-key" class="er entityLabel"></text><rect height="23" width="100.0999984741211" y="162" x="0" class="er attributeBoxOdd"></rect><text transform="translate(5,173.5)" style="dominant-baseline: middle; font-size: 10.2px;" y="0" x="0" id="text-entity-User-818c511a-4a32-5484-ba70-875d765a9175-attr-7-type" class="er entityLabel">backgroundImageId</text><rect height="23" width="34.933332443237305" y="162" x="100.0999984741211" class="er attributeBoxOdd"></rect><text transform="translate(105.0999984741211,173.5)" style="dominant-baseline: middle; font-size: 10.2px;" y="0" x="0" id="text-entity-User-818c511a-4a32-5484-ba70-875d765a9175-attr-7-name" class="er entityLabel">int</text><rect height="23" width="23.600000381469727" y="162" x="135.0333309173584" class="er attributeBoxOdd"></rect><text transform="translate(140.0333309173584,173.5)" style="dominant-baseline: middle; font-size: 10.2px;" y="0" x="0" id="text-entity-User-818c511a-4a32-5484-ba70-875d765a9175-attr-7-key" class="er entityLabel">FK</text><rect height="23" width="100.0999984741211" y="185" x="0" class="er attributeBoxEven"></rect><text transform="translate(5,196.5)" style="dominant-baseline: middle; font-size: 10.2px;" y="0" x="0" id="text-entity-User-818c511a-4a32-5484-ba70-875d765a9175-attr-8-type" class="er entityLabel">bannerImageId</text><rect height="23" width="34.933332443237305" y="185" x="100.0999984741211" class="er attributeBoxEven"></rect><text transform="translate(105.0999984741211,196.5)" style="dominant-baseline: middle; font-size: 10.2px;" y="0" x="0" id="text-entity-User-818c511a-4a32-5484-ba70-875d765a9175-attr-8-name" class="er entityLabel">int</text><rect height="23" width="23.600000381469727" y="185" x="135.0333309173584" class="er attributeBoxEven"></rect><text transform="translate(140.0333309173584,196.5)" style="dominant-baseline: middle; font-size: 10.2px;" y="0" x="0" id="text-entity-User-818c511a-4a32-5484-ba70-875d765a9175-attr-8-key" class="er entityLabel">FK</text><rect height="23" width="100.0999984741211" y="208" x="0" class="er attributeBoxOdd"></rect><text transform="translate(5,219.5)" style="dominant-baseline: middle; font-size: 10.2px;" y="0" x="0" id="text-entity-User-818c511a-4a32-5484-ba70-875d765a9175-attr-9-type" class="er entityLabel">accentColor</text><rect height="23" width="34.933332443237305" y="208" x="100.0999984741211" class="er attributeBoxOdd"></rect><text transform="translate(105.0999984741211,219.5)" style="dominant-baseline: middle; font-size: 10.2px;" y="0" x="0" id="text-entity-User-818c511a-4a32-5484-ba70-875d765a9175-attr-9-name" class="er entityLabel">string</text><rect height="23" width="23.600000381469727" y="208" x="135.0333309173584" class="er attributeBoxOdd"></rect><text transform="translate(140.0333309173584,219.5)" style="dominant-baseline: middle; font-size: 10.2px;" y="0" x="0" id="text-entity-User-818c511a-4a32-5484-ba70-875d765a9175-attr-9-key" class="er entityLabel"></text></g><g transform="translate(207.39166641235352,20 )" id="entity-Comment-09a819da-2a79-5b7d-8a84-94cec22d9152"><rect height="139" width="100" y="0" x="0" class="er entityBox"></rect><text transform="translate(50,12)" style="dominant-baseline: middle; text-anchor: middle; font-size: 12px;" y="0" x="0" id="text-entity-Comment-09a819da-2a79-5b7d-8a84-94cec22d9152" class="er entityLabel">Comment</text><rect height="23" width="39.37777837117513" y="24" x="0" class="er attributeBoxOdd"></rect><text transform="translate(5,35.5)" style="dominant-baseline: middle; font-size: 10.2px;" y="0" x="0" id="text-entity-Comment-09a819da-2a79-5b7d-8a84-94cec22d9152-attr-1-type" class="er entityLabel">id</text><rect height="23" width="35.977776845296226" y="24" x="39.37777837117513" class="er attributeBoxOdd"></rect><text transform="translate(44.37777837117513,35.5)" style="dominant-baseline: middle; font-size: 10.2px;" y="0" x="0" id="text-entity-Comment-09a819da-2a79-5b7d-8a84-94cec22d9152-attr-1-name" class="er entityLabel">int</text><rect height="23" width="24.644444783528645" y="24" x="75.35555521647136" class="er attributeBoxOdd"></rect><text transform="translate(80.35555521647136,35.5)" style="dominant-baseline: middle; font-size: 10.2px;" y="0" x="0" id="text-entity-Comment-09a819da-2a79-5b7d-8a84-94cec22d9152-attr-1-key" class="er entityLabel">PK</text><rect height="23" width="39.37777837117513" y="47" x="0" class="er attributeBoxEven"></rect><text transform="translate(5,58.5)" style="dominant-baseline: middle; font-size: 10.2px;" y="0" x="0" id="text-entity-Comment-09a819da-2a79-5b7d-8a84-94cec22d9152-attr-2-type" class="er entityLabel">text</text><rect height="23" width="35.977776845296226" y="47" x="39.37777837117513" class="er attributeBoxEven"></rect><text transform="translate(44.37777837117513,58.5)" style="dominant-baseline: middle; font-size: 10.2px;" y="0" x="0" id="text-entity-Comment-09a819da-2a79-5b7d-8a84-94cec22d9152-attr-2-name" class="er entityLabel">string</text><rect height="23" width="24.644444783528645" y="47" x="75.35555521647136" class="er attributeBoxEven"></rect><text transform="translate(80.35555521647136,58.5)" style="dominant-baseline: middle; font-size: 10.2px;" y="0" x="0" id="text-entity-Comment-09a819da-2a79-5b7d-8a84-94cec22d9152-attr-2-key" class="er entityLabel"></text><rect height="23" width="39.37777837117513" y="70" x="0" class="er attributeBoxOdd"></rect><text transform="translate(5,81.5)" style="dominant-baseline: middle; font-size: 10.2px;" y="0" x="0" id="text-entity-Comment-09a819da-2a79-5b7d-8a84-94cec22d9152-attr-3-type" class="er entityLabel">likes</text><rect height="23" width="35.977776845296226" y="70" x="39.37777837117513" class="er attributeBoxOdd"></rect><text transform="translate(44.37777837117513,81.5)" style="dominant-baseline: middle; font-size: 10.2px;" y="0" x="0" id="text-entity-Comment-09a819da-2a79-5b7d-8a84-94cec22d9152-attr-3-name" class="er entityLabel">int</text><rect height="23" width="24.644444783528645" y="70" x="75.35555521647136" class="er attributeBoxOdd"></rect><text transform="translate(80.35555521647136,81.5)" style="dominant-baseline: middle; font-size: 10.2px;" y="0" x="0" id="text-entity-Comment-09a819da-2a79-5b7d-8a84-94cec22d9152-attr-3-key" class="er entityLabel"></text><rect height="23" width="39.37777837117513" y="93" x="0" class="er attributeBoxEven"></rect><text transform="translate(5,104.5)" style="dominant-baseline: middle; font-size: 10.2px;" y="0" x="0" id="text-entity-Comment-09a819da-2a79-5b7d-8a84-94cec22d9152-attr-4-type" class="er entityLabel">userId</text><rect height="23" width="35.977776845296226" y="93" x="39.37777837117513" class="er attributeBoxEven"></rect><text transform="translate(44.37777837117513,104.5)" style="dominant-baseline: middle; font-size: 10.2px;" y="0" x="0" id="text-entity-Comment-09a819da-2a79-5b7d-8a84-94cec22d9152-attr-4-name" class="er entityLabel">int</text><rect height="23" width="24.644444783528645" y="93" x="75.35555521647136" class="er attributeBoxEven"></rect><text transform="translate(80.35555521647136,104.5)" style="dominant-baseline: middle; font-size: 10.2px;" y="0" x="0" id="text-entity-Comment-09a819da-2a79-5b7d-8a84-94cec22d9152-attr-4-key" class="er entityLabel">FK</text><rect height="23" width="39.37777837117513" y="116" x="0" class="er attributeBoxOdd"></rect><text transform="translate(5,127.5)" style="dominant-baseline: middle; font-size: 10.2px;" y="0" x="0" id="text-entity-Comment-09a819da-2a79-5b7d-8a84-94cec22d9152-attr-5-type" class="er entityLabel">postId</text><rect height="23" width="35.977776845296226" y="116" x="39.37777837117513" class="er attributeBoxOdd"></rect><text transform="translate(44.37777837117513,127.5)" style="dominant-baseline: middle; font-size: 10.2px;" y="0" x="0" id="text-entity-Comment-09a819da-2a79-5b7d-8a84-94cec22d9152-attr-5-name" class="er entityLabel">int</text><rect height="23" width="24.644444783528645" y="116" x="75.35555521647136" class="er attributeBoxOdd"></rect><text transform="translate(80.35555521647136,127.5)" style="dominant-baseline: middle; font-size: 10.2px;" y="0" x="0" id="text-entity-Comment-09a819da-2a79-5b7d-8a84-94cec22d9152-attr-5-key" class="er entityLabel">FK</text></g><g transform="translate(328.07500076293945,544 )" id="entity-Community-bd8f9868-7f31-5baf-872b-a65ae610feeb"><rect height="162" width="158.63333129882812" y="0" x="0" class="er entityBox"></rect><text transform="translate(79.31666564941406,12)" style="dominant-baseline: middle; text-anchor: middle; font-size: 12px;" y="0" x="0" id="text-entity-Community-bd8f9868-7f31-5baf-872b-a65ae610feeb" class="er entityLabel">Community</text><rect height="23" width="100.0999984741211" y="24" x="0" class="er attributeBoxOdd"></rect><text transform="translate(5,35.5)" style="dominant-baseline: middle; font-size: 10.2px;" y="0" x="0" id="text-entity-Community-bd8f9868-7f31-5baf-872b-a65ae610feeb-attr-1-type" class="er entityLabel">id</text><rect height="23" width="34.933332443237305" y="24" x="100.0999984741211" class="er attributeBoxOdd"></rect><text transform="translate(105.0999984741211,35.5)" style="dominant-baseline: middle; font-size: 10.2px;" y="0" x="0" id="text-entity-Community-bd8f9868-7f31-5baf-872b-a65ae610feeb-attr-1-name" class="er entityLabel">int</text><rect height="23" width="23.600000381469727" y="24" x="135.0333309173584" class="er attributeBoxOdd"></rect><text transform="translate(140.0333309173584,35.5)" style="dominant-baseline: middle; font-size: 10.2px;" y="0" x="0" id="text-entity-Community-bd8f9868-7f31-5baf-872b-a65ae610feeb-attr-1-key" class="er entityLabel">PK</text><rect height="23" width="100.0999984741211" y="47" x="0" class="er attributeBoxEven"></rect><text transform="translate(5,58.5)" style="dominant-baseline: middle; font-size: 10.2px;" y="0" x="0" id="text-entity-Community-bd8f9868-7f31-5baf-872b-a65ae610feeb-attr-2-type" class="er entityLabel">name</text><rect height="23" width="34.933332443237305" y="47" x="100.0999984741211" class="er attributeBoxEven"></rect><text transform="translate(105.0999984741211,58.5)" style="dominant-baseline: middle; font-size: 10.2px;" y="0" x="0" id="text-entity-Community-bd8f9868-7f31-5baf-872b-a65ae610feeb-attr-2-name" class="er entityLabel">string</text><rect height="23" width="23.600000381469727" y="47" x="135.0333309173584" class="er attributeBoxEven"></rect><text transform="translate(140.0333309173584,58.5)" style="dominant-baseline: middle; font-size: 10.2px;" y="0" x="0" id="text-entity-Community-bd8f9868-7f31-5baf-872b-a65ae610feeb-attr-2-key" class="er entityLabel"></text><rect height="23" width="100.0999984741211" y="70" x="0" class="er attributeBoxOdd"></rect><text transform="translate(5,81.5)" style="dominant-baseline: middle; font-size: 10.2px;" y="0" x="0" id="text-entity-Community-bd8f9868-7f31-5baf-872b-a65ae610feeb-attr-3-type" class="er entityLabel">profileImageId</text><rect height="23" width="34.933332443237305" y="70" x="100.0999984741211" class="er attributeBoxOdd"></rect><text transform="translate(105.0999984741211,81.5)" style="dominant-baseline: middle; font-size: 10.2px;" y="0" x="0" id="text-entity-Community-bd8f9868-7f31-5baf-872b-a65ae610feeb-attr-3-name" class="er entityLabel">int</text><rect height="23" width="23.600000381469727" y="70" x="135.0333309173584" class="er attributeBoxOdd"></rect><text transform="translate(140.0333309173584,81.5)" style="dominant-baseline: middle; font-size: 10.2px;" y="0" x="0" id="text-entity-Community-bd8f9868-7f31-5baf-872b-a65ae610feeb-attr-3-key" class="er entityLabel">FK</text><rect height="23" width="100.0999984741211" y="93" x="0" class="er attributeBoxEven"></rect><text transform="translate(5,104.5)" style="dominant-baseline: middle; font-size: 10.2px;" y="0" x="0" id="text-entity-Community-bd8f9868-7f31-5baf-872b-a65ae610feeb-attr-4-type" class="er entityLabel">backgroundImageId</text><rect height="23" width="34.933332443237305" y="93" x="100.0999984741211" class="er attributeBoxEven"></rect><text transform="translate(105.0999984741211,104.5)" style="dominant-baseline: middle; font-size: 10.2px;" y="0" x="0" id="text-entity-Community-bd8f9868-7f31-5baf-872b-a65ae610feeb-attr-4-name" class="er entityLabel">int</text><rect height="23" width="23.600000381469727" y="93" x="135.0333309173584" class="er attributeBoxEven"></rect><text transform="translate(140.0333309173584,104.5)" style="dominant-baseline: middle; font-size: 10.2px;" y="0" x="0" id="text-entity-Community-bd8f9868-7f31-5baf-872b-a65ae610feeb-attr-4-key" class="er entityLabel">FK</text><rect height="23" width="100.0999984741211" y="116" x="0" class="er attributeBoxOdd"></rect><text transform="translate(5,127.5)" style="dominant-baseline: middle; font-size: 10.2px;" y="0" x="0" id="text-entity-Community-bd8f9868-7f31-5baf-872b-a65ae610feeb-attr-5-type" class="er entityLabel">bannerImageId</text><rect height="23" width="34.933332443237305" y="116" x="100.0999984741211" class="er attributeBoxOdd"></rect><text transform="translate(105.0999984741211,127.5)" style="dominant-baseline: middle; font-size: 10.2px;" y="0" x="0" id="text-entity-Community-bd8f9868-7f31-5baf-872b-a65ae610feeb-attr-5-name" class="er entityLabel">int</text><rect height="23" width="23.600000381469727" y="116" x="135.0333309173584" class="er attributeBoxOdd"></rect><text transform="translate(140.0333309173584,127.5)" style="dominant-baseline: middle; font-size: 10.2px;" y="0" x="0" id="text-entity-Community-bd8f9868-7f31-5baf-872b-a65ae610feeb-attr-5-key" class="er entityLabel">FK</text><rect height="23" width="100.0999984741211" y="139" x="0" class="er attributeBoxEven"></rect><text transform="translate(5,150.5)" style="dominant-baseline: middle; font-size: 10.2px;" y="0" x="0" id="text-entity-Community-bd8f9868-7f31-5baf-872b-a65ae610feeb-attr-6-type" class="er entityLabel">adminUserId</text><rect height="23" width="34.933332443237305" y="139" x="100.0999984741211" class="er attributeBoxEven"></rect><text transform="translate(105.0999984741211,150.5)" style="dominant-baseline: middle; font-size: 10.2px;" y="0" x="0" id="text-entity-Community-bd8f9868-7f31-5baf-872b-a65ae610feeb-attr-6-name" class="er entityLabel">int</text><rect height="23" width="23.600000381469727" y="139" x="135.0333309173584" class="er attributeBoxEven"></rect><text transform="translate(140.0333309173584,150.5)" style="dominant-baseline: middle; font-size: 10.2px;" y="0" x="0" id="text-entity-Community-bd8f9868-7f31-5baf-872b-a65ae610feeb-attr-6-key" class="er entityLabel">FK</text></g><g transform="translate(344.22500228881836,259 )" id="entity-Post-532e386b-856e-5baf-9389-a9bdd31661fe"><rect height="185" width="126.33333206176758" y="0" x="0" class="er entityBox"></rect><text transform="translate(63.16666603088379,12)" style="dominant-baseline: middle; text-anchor: middle; font-size: 12px;" y="0" x="0" id="text-entity-Post-532e386b-856e-5baf-9389-a9bdd31661fe" class="er entityLabel">Post</text><rect height="23" width="67.79999923706055" y="24" x="0" class="er attributeBoxOdd"></rect><text transform="translate(5,35.5)" style="dominant-baseline: middle; font-size: 10.2px;" y="0" x="0" id="text-entity-Post-532e386b-856e-5baf-9389-a9bdd31661fe-attr-1-type" class="er entityLabel">id</text><rect height="23" width="34.933332443237305" y="24" x="67.79999923706055" class="er attributeBoxOdd"></rect><text transform="translate(72.79999923706055,35.5)" style="dominant-baseline: middle; font-size: 10.2px;" y="0" x="0" id="text-entity-Post-532e386b-856e-5baf-9389-a9bdd31661fe-attr-1-name" class="er entityLabel">int</text><rect height="23" width="23.600000381469727" y="24" x="102.73333168029785" class="er attributeBoxOdd"></rect><text transform="translate(107.73333168029785,35.5)" style="dominant-baseline: middle; font-size: 10.2px;" y="0" x="0" id="text-entity-Post-532e386b-856e-5baf-9389-a9bdd31661fe-attr-1-key" class="er entityLabel">PK</text><rect height="23" width="67.79999923706055" y="47" x="0" class="er attributeBoxEven"></rect><text transform="translate(5,58.5)" style="dominant-baseline: middle; font-size: 10.2px;" y="0" x="0" id="text-entity-Post-532e386b-856e-5baf-9389-a9bdd31661fe-attr-2-type" class="er entityLabel">title</text><rect height="23" width="34.933332443237305" y="47" x="67.79999923706055" class="er attributeBoxEven"></rect><text transform="translate(72.79999923706055,58.5)" style="dominant-baseline: middle; font-size: 10.2px;" y="0" x="0" id="text-entity-Post-532e386b-856e-5baf-9389-a9bdd31661fe-attr-2-name" class="er entityLabel">string</text><rect height="23" width="23.600000381469727" y="47" x="102.73333168029785" class="er attributeBoxEven"></rect><text transform="translate(107.73333168029785,58.5)" style="dominant-baseline: middle; font-size: 10.2px;" y="0" x="0" id="text-entity-Post-532e386b-856e-5baf-9389-a9bdd31661fe-attr-2-key" class="er entityLabel"></text><rect height="23" width="67.79999923706055" y="70" x="0" class="er attributeBoxOdd"></rect><text transform="translate(5,81.5)" style="dominant-baseline: middle; font-size: 10.2px;" y="0" x="0" id="text-entity-Post-532e386b-856e-5baf-9389-a9bdd31661fe-attr-3-type" class="er entityLabel">text</text><rect height="23" width="34.933332443237305" y="70" x="67.79999923706055" class="er attributeBoxOdd"></rect><text transform="translate(72.79999923706055,81.5)" style="dominant-baseline: middle; font-size: 10.2px;" y="0" x="0" id="text-entity-Post-532e386b-856e-5baf-9389-a9bdd31661fe-attr-3-name" class="er entityLabel">string</text><rect height="23" width="23.600000381469727" y="70" x="102.73333168029785" class="er attributeBoxOdd"></rect><text transform="translate(107.73333168029785,81.5)" style="dominant-baseline: middle; font-size: 10.2px;" y="0" x="0" id="text-entity-Post-532e386b-856e-5baf-9389-a9bdd31661fe-attr-3-key" class="er entityLabel"></text><rect height="23" width="67.79999923706055" y="93" x="0" class="er attributeBoxEven"></rect><text transform="translate(5,104.5)" style="dominant-baseline: middle; font-size: 10.2px;" y="0" x="0" id="text-entity-Post-532e386b-856e-5baf-9389-a9bdd31661fe-attr-4-type" class="er entityLabel">imageId</text><rect height="23" width="34.933332443237305" y="93" x="67.79999923706055" class="er attributeBoxEven"></rect><text transform="translate(72.79999923706055,104.5)" style="dominant-baseline: middle; font-size: 10.2px;" y="0" x="0" id="text-entity-Post-532e386b-856e-5baf-9389-a9bdd31661fe-attr-4-name" class="er entityLabel">int</text><rect height="23" width="23.600000381469727" y="93" x="102.73333168029785" class="er attributeBoxEven"></rect><text transform="translate(107.73333168029785,104.5)" style="dominant-baseline: middle; font-size: 10.2px;" y="0" x="0" id="text-entity-Post-532e386b-856e-5baf-9389-a9bdd31661fe-attr-4-key" class="er entityLabel">FK</text><rect height="23" width="67.79999923706055" y="116" x="0" class="er attributeBoxOdd"></rect><text transform="translate(5,127.5)" style="dominant-baseline: middle; font-size: 10.2px;" y="0" x="0" id="text-entity-Post-532e386b-856e-5baf-9389-a9bdd31661fe-attr-5-type" class="er entityLabel">likes</text><rect height="23" width="34.933332443237305" y="116" x="67.79999923706055" class="er attributeBoxOdd"></rect><text transform="translate(72.79999923706055,127.5)" style="dominant-baseline: middle; font-size: 10.2px;" y="0" x="0" id="text-entity-Post-532e386b-856e-5baf-9389-a9bdd31661fe-attr-5-name" class="er entityLabel">int</text><rect height="23" width="23.600000381469727" y="116" x="102.73333168029785" class="er attributeBoxOdd"></rect><text transform="translate(107.73333168029785,127.5)" style="dominant-baseline: middle; font-size: 10.2px;" y="0" x="0" id="text-entity-Post-532e386b-856e-5baf-9389-a9bdd31661fe-attr-5-key" class="er entityLabel"></text><rect height="23" width="67.79999923706055" y="139" x="0" class="er attributeBoxEven"></rect><text transform="translate(5,150.5)" style="dominant-baseline: middle; font-size: 10.2px;" y="0" x="0" id="text-entity-Post-532e386b-856e-5baf-9389-a9bdd31661fe-attr-6-type" class="er entityLabel">userId</text><rect height="23" width="34.933332443237305" y="139" x="67.79999923706055" class="er attributeBoxEven"></rect><text transform="translate(72.79999923706055,150.5)" style="dominant-baseline: middle; font-size: 10.2px;" y="0" x="0" id="text-entity-Post-532e386b-856e-5baf-9389-a9bdd31661fe-attr-6-name" class="er entityLabel">int</text><rect height="23" width="23.600000381469727" y="139" x="102.73333168029785" class="er attributeBoxEven"></rect><text transform="translate(107.73333168029785,150.5)" style="dominant-baseline: middle; font-size: 10.2px;" y="0" x="0" id="text-entity-Post-532e386b-856e-5baf-9389-a9bdd31661fe-attr-6-key" class="er entityLabel">FK</text><rect height="23" width="67.79999923706055" y="162" x="0" class="er attributeBoxOdd"></rect><text transform="translate(5,173.5)" style="dominant-baseline: middle; font-size: 10.2px;" y="0" x="0" id="text-entity-Post-532e386b-856e-5baf-9389-a9bdd31661fe-attr-7-type" class="er entityLabel">communityId</text><rect height="23" width="34.933332443237305" y="162" x="67.79999923706055" class="er attributeBoxOdd"></rect><text transform="translate(72.79999923706055,173.5)" style="dominant-baseline: middle; font-size: 10.2px;" y="0" x="0" id="text-entity-Post-532e386b-856e-5baf-9389-a9bdd31661fe-attr-7-name" class="er entityLabel">int</text><rect height="23" width="23.600000381469727" y="162" x="102.73333168029785" class="er attributeBoxOdd"></rect><text transform="translate(107.73333168029785,173.5)" style="dominant-baseline: middle; font-size: 10.2px;" y="0" x="0" id="text-entity-Post-532e386b-856e-5baf-9389-a9bdd31661fe-attr-7-key" class="er entityLabel">FK</text></g><g transform="translate(299.31666564941406,1137 )" id="entity-Image-5faf0420-a27f-5ed3-8f82-b959b40ae52f"><rect height="93" width="100" y="0" x="0" class="er entityBox"></rect><text transform="translate(50,12)" style="dominant-baseline: middle; text-anchor: middle; font-size: 12px;" y="0" x="0" id="text-entity-Image-5faf0420-a27f-5ed3-8f82-b959b40ae52f" class="er entityLabel">Image</text><rect height="23" width="35.222222646077476" y="24" x="0" class="er attributeBoxOdd"></rect><text transform="translate(5,35.5)" style="dominant-baseline: middle; font-size: 10.2px;" y="0" x="0" id="text-entity-Image-5faf0420-a27f-5ed3-8f82-b959b40ae52f-attr-1-type" class="er entityLabel">id</text><rect height="23" width="38.055554707845054" y="24" x="35.222222646077476" class="er attributeBoxOdd"></rect><text transform="translate(40.222222646077476,35.5)" style="dominant-baseline: middle; font-size: 10.2px;" y="0" x="0" id="text-entity-Image-5faf0420-a27f-5ed3-8f82-b959b40ae52f-attr-1-name" class="er entityLabel">int</text><rect height="23" width="26.722222646077473" y="24" x="73.27777735392253" class="er attributeBoxOdd"></rect><text transform="translate(78.27777735392253,35.5)" style="dominant-baseline: middle; font-size: 10.2px;" y="0" x="0" id="text-entity-Image-5faf0420-a27f-5ed3-8f82-b959b40ae52f-attr-1-key" class="er entityLabel">PK</text><rect height="23" width="35.222222646077476" y="47" x="0" class="er attributeBoxEven"></rect><text transform="translate(5,58.5)" style="dominant-baseline: middle; font-size: 10.2px;" y="0" x="0" id="text-entity-Image-5faf0420-a27f-5ed3-8f82-b959b40ae52f-attr-2-type" class="er entityLabel">path</text><rect height="23" width="38.055554707845054" y="47" x="35.222222646077476" class="er attributeBoxEven"></rect><text transform="translate(40.222222646077476,58.5)" style="dominant-baseline: middle; font-size: 10.2px;" y="0" x="0" id="text-entity-Image-5faf0420-a27f-5ed3-8f82-b959b40ae52f-attr-2-name" class="er entityLabel">string</text><rect height="23" width="26.722222646077473" y="47" x="73.27777735392253" class="er attributeBoxEven"></rect><text transform="translate(78.27777735392253,58.5)" style="dominant-baseline: middle; font-size: 10.2px;" y="0" x="0" id="text-entity-Image-5faf0420-a27f-5ed3-8f82-b959b40ae52f-attr-2-key" class="er entityLabel"></text><rect height="23" width="35.222222646077476" y="70" x="0" class="er attributeBoxOdd"></rect><text transform="translate(5,81.5)" style="dominant-baseline: middle; font-size: 10.2px;" y="0" x="0" id="text-entity-Image-5faf0420-a27f-5ed3-8f82-b959b40ae52f-attr-3-type" class="er entityLabel">hash</text><rect height="23" width="38.055554707845054" y="70" x="35.222222646077476" class="er attributeBoxOdd"></rect><text transform="translate(40.222222646077476,81.5)" style="dominant-baseline: middle; font-size: 10.2px;" y="0" x="0" id="text-entity-Image-5faf0420-a27f-5ed3-8f82-b959b40ae52f-attr-3-name" class="er entityLabel">string</text><rect height="23" width="26.722222646077473" y="70" x="73.27777735392253" class="er attributeBoxOdd"></rect><text transform="translate(78.27777735392253,81.5)" style="dominant-baseline: middle; font-size: 10.2px;" y="0" x="0" id="text-entity-Image-5faf0420-a27f-5ed3-8f82-b959b40ae52f-attr-3-key" class="er entityLabel"></text></g><rect height="14" width="55.33333206176758" y="399.6343994140625" x="-59.933664321899414" class="er relationshipLabelBox"></rect><text style="text-anchor: middle; dominant-baseline: middle; font-size: 12px;" y="406.6343994140625" x="-32.266998291015625" id="rel4021" class="er relationshipLabel">belongs to</text><rect height="14" width="55.33333206176758" y="177.39443969726562" x="345.1082057952881" class="er relationshipLabelBox"></rect><text style="text-anchor: middle; dominant-baseline: middle; font-size: 12px;" y="184.39443969726562" x="372.7748718261719" id="rel4022" class="er relationshipLabel">belongs to</text><rect height="14" width="32.66666793823242" y="1116.80859375" x="127.12441444396973" class="er relationshipLabelBox"></rect><text style="text-anchor: middle; dominant-baseline: middle; font-size: 12px;" y="1123.80859375" x="143.45774841308594" id="rel4023" class="er relationshipLabel">profile</text><rect height="14" width="37.33333206176758" y="1109.7489013671875" x="168.07985496520996" class="er relationshipLabelBox"></rect><text style="text-anchor: middle; dominant-baseline: middle; font-size: 12px;" y="1116.7489013671875" x="186.74652099609375" id="rel4024" class="er relationshipLabel">banner</text><rect height="14" width="62.66666793823242" y="1063.7451171875" x="210.5207462310791" class="er relationshipLabelBox"></rect><text style="text-anchor: middle; dominant-baseline: middle; font-size: 12px;" y="1070.7451171875" x="241.8540802001953" id="rel4025" class="er relationshipLabel">background</text><rect height="14" width="56" y="523.4954833984375" x="87.2080078125" class="er relationshipLabelBox"></rect><text style="text-anchor: middle; dominant-baseline: middle; font-size: 12px;" y="530.4954833984375" x="115.2080078125" id="rel4026" class="er relationshipLabel">created by</text><rect height="14" width="55.33333206176758" y="487" x="379.72533226013184" class="er relationshipLabelBox"></rect><text style="text-anchor: middle; dominant-baseline: middle; font-size: 12px;" y="494" x="407.3919982910156" id="rel4027" class="er relationshipLabel">belongs to</text><rect height="14" width="19.33333396911621" y="803.1192016601562" x="647.7253618240356" class="er relationshipLabelBox"></rect><text style="text-anchor: middle; dominant-baseline: middle; font-size: 12px;" y="810.1192016601562" x="657.3920288085938" id="rel4028" class="er relationshipLabel">has</text><rect height="14" width="32.66666793823242" y="731.1272583007812" x="230.5247745513916" class="er relationshipLabelBox"></rect><text style="text-anchor: middle; dominant-baseline: middle; font-size: 12px;" y="738.1272583007812" x="246.8581085205078" id="rel4029" class="er relationshipLabel">admin</text><rect height="14" width="32.66666793823242" y="913.5039672851562" x="341.0586643218994" class="er relationshipLabelBox"></rect><text style="text-anchor: middle; dominant-baseline: middle; font-size: 12px;" y="920.5039672851562" x="357.3919982910156" id="rel4030" class="er relationshipLabel">profile</text><rect height="14" width="37.33333206176758" y="923.0014038085938" x="438.7239284515381" class="er relationshipLabelBox"></rect><text style="text-anchor: middle; dominant-baseline: middle; font-size: 12px;" y="930.0014038085938" x="457.3905944824219" id="rel4031" class="er relationshipLabel">banner</text><rect height="14" width="62.66666793823242" y="947.5874633789062" x="525.845682144165" class="er relationshipLabelBox"></rect><text style="text-anchor: middle; dominant-baseline: middle; font-size: 12px;" y="954.5874633789062" x="557.1790161132812" id="rel4032" class="er relationshipLabel">background</text></g><g id="svg-pan-zoom-controls" transform="translate(1046 715) scale(0.75)" class="svg-pan-zoom-control"><g id="svg-pan-zoom-zoom-in" transform="translate(30.5 5) scale(0.015)" class="svg-pan-zoom-control"><rect x="0" y="0" width="1500" height="1400" class="svg-pan-zoom-control-background"></rect><path d="M1280 576v128q0 26 -19 45t-45 19h-320v320q0 26 -19 45t-45 19h-128q-26 0 -45 -19t-19 -45v-320h-320q-26 0 -45 -19t-19 -45v-128q0 -26 19 -45t45 -19h320v-320q0 -26 19 -45t45 -19h128q26 0 45 19t19 45v320h320q26 0 45 19t19 45zM1536 1120v-960 q0 -119 -84.5 -203.5t-203.5 -84.5h-960q-119 0 -203.5 84.5t-84.5 203.5v960q0 119 84.5 203.5t203.5 84.5h960q119 0 203.5 -84.5t84.5 -203.5z" class="svg-pan-zoom-control-element"></path></g><g id="svg-pan-zoom-reset-pan-zoom" transform="translate(5 35) scale(0.4)" class="svg-pan-zoom-control"><rect x="2" y="2" width="182" height="58" class="svg-pan-zoom-control-background"></rect><path d="M33.051,20.632c-0.742-0.406-1.854-0.609-3.338-0.609h-7.969v9.281h7.769c1.543,0,2.701-0.188,3.473-0.562c1.365-0.656,2.048-1.953,2.048-3.891C35.032,22.757,34.372,21.351,33.051,20.632z" class="svg-pan-zoom-control-element"></path><path d="M170.231,0.5H15.847C7.102,0.5,0.5,5.708,0.5,11.84v38.861C0.5,56.833,7.102,61.5,15.847,61.5h154.384c8.745,0,15.269-4.667,15.269-10.798V11.84C185.5,5.708,178.976,0.5,170.231,0.5z M42.837,48.569h-7.969c-0.219-0.766-0.375-1.383-0.469-1.852c-0.188-0.969-0.289-1.961-0.305-2.977l-0.047-3.211c-0.03-2.203-0.41-3.672-1.142-4.406c-0.732-0.734-2.103-1.102-4.113-1.102h-7.05v13.547h-7.055V14.022h16.524c2.361,0.047,4.178,0.344,5.45,0.891c1.272,0.547,2.351,1.352,3.234,2.414c0.731,0.875,1.31,1.844,1.737,2.906s0.64,2.273,0.64,3.633c0,1.641-0.414,3.254-1.242,4.84s-2.195,2.707-4.102,3.363c1.594,0.641,2.723,1.551,3.387,2.73s0.996,2.98,0.996,5.402v2.32c0,1.578,0.063,2.648,0.19,3.211c0.19,0.891,0.635,1.547,1.333,1.969V48.569z M75.579,48.569h-26.18V14.022h25.336v6.117H56.454v7.336h16.781v6H56.454v8.883h19.125V48.569z M104.497,46.331c-2.44,2.086-5.887,3.129-10.34,3.129c-4.548,0-8.125-1.027-10.731-3.082s-3.909-4.879-3.909-8.473h6.891c0.224,1.578,0.662,2.758,1.316,3.539c1.196,1.422,3.246,2.133,6.15,2.133c1.739,0,3.151-0.188,4.236-0.562c2.058-0.719,3.087-2.055,3.087-4.008c0-1.141-0.504-2.023-1.512-2.648c-1.008-0.609-2.607-1.148-4.796-1.617l-3.74-0.82c-3.676-0.812-6.201-1.695-7.576-2.648c-2.328-1.594-3.492-4.086-3.492-7.477c0-3.094,1.139-5.664,3.417-7.711s5.623-3.07,10.036-3.07c3.685,0,6.829,0.965,9.431,2.895c2.602,1.93,3.966,4.73,4.093,8.402h-6.938c-0.128-2.078-1.057-3.555-2.787-4.43c-1.154-0.578-2.587-0.867-4.301-0.867c-1.907,0-3.428,0.375-4.565,1.125c-1.138,0.75-1.706,1.797-1.706,3.141c0,1.234,0.561,2.156,1.682,2.766c0.721,0.406,2.25,0.883,4.589,1.43l6.063,1.43c2.657,0.625,4.648,1.461,5.975,2.508c2.059,1.625,3.089,3.977,3.089,7.055C108.157,41.624,106.937,44.245,104.497,46.331z M139.61,48.569h-26.18V14.022h25.336v6.117h-18.281v7.336h16.781v6h-16.781v8.883h19.125V48.569z M170.337,20.14h-10.336v28.43h-7.266V20.14h-10.383v-6.117h27.984V20.14z" class="svg-pan-zoom-control-element"></path></g><g id="svg-pan-zoom-zoom-out" transform="translate(30.5 70) scale(0.015)" class="svg-pan-zoom-control"><rect x="0" y="0" width="1500" height="1400" class="svg-pan-zoom-control-background"></rect><path d="M1280 576v128q0 26 -19 45t-45 19h-896q-26 0 -45 -19t-19 -45v-128q0 -26 19 -45t45 -19h896q26 0 45 19t19 45zM1536 1120v-960q0 -119 -84.5 -203.5t-203.5 -84.5h-960q-119 0 -203.5 84.5t-84.5 203.5v960q0 119 84.5 203.5t203.5 84.5h960q119 0 203.5 -84.5 t84.5 -203.5z" class="svg-pan-zoom-control-element"></path></g></g></svg>